<?xml version="1.0" standalone="no"?>
<!DOCTYPE svg PUBLIC "-//W3C//DTD SVG 20010904//EN"
 "http://www.w3.org/TR/2001/REC-SVG-20010904/DTD/svg10.dtd">
<svg version="1.0" xmlns="http://www.w3.org/2000/svg"
 width="1600.000000pt" height="793.000000pt" viewBox="0 0 1600.000000 793.000000"
 preserveAspectRatio="xMidYMid meet">

<g transform="translate(0.000000,793.000000) scale(0.100000,-0.100000)"
fill="#000000" stroke="none">
<path d="M15237 7533 c-4 -3 -7 -14 -7 -24 0 -10 -9 -19 -22 -21 -31 -4 -35
-28 -4 -28 20 0 25 -6 28 -27 4 -36 22 -36 26 -1 2 20 10 28 28 30 32 4 32 22
-1 26 -19 3 -25 9 -25 28 0 23 -10 31 -23 17z"/>
<path d="M2045 7438 c-2 -7 -3 -24 -2 -38 2 -20 8 -26 35 -28 l32 -3 0 -290 0
-289 -22 0 c-36 0 -49 -14 -46 -48 l2 -32 114 0 113 0 -3 37 c-2 30 -8 38 -28
43 -21 5 -25 12 -28 48 l-3 42 58 -1 58 -1 73 -84 73 -84 60 0 60 0 -3 37 c-3
34 -6 37 -38 41 -36 4 -67 27 -101 74 l-19 26 35 21 c68 40 96 132 60 200 -20
39 -89 71 -151 71 -48 0 -125 -27 -138 -49 -20 -32 -26 2 -26 154 l0 165 -80
0 c-56 0 -82 -4 -85 -12z m378 -366 c27 -24 19 -80 -16 -106 -22 -16 -43 -20
-110 -21 l-82 0 -3 36 c-7 88 142 153 211 91z"/>
<path d="M5770 7376 c0 -19 -6 -25 -27 -28 -34 -4 -33 -22 2 -26 19 -3 25 -9
25 -27 0 -36 17 -39 24 -5 4 24 11 30 32 30 34 0 26 24 -10 28 -14 2 -26 9
-25 15 3 24 -1 37 -11 37 -5 0 -10 -11 -10 -24z"/>
<path d="M910 7295 l0 -95 40 0 c35 0 40 3 40 24 0 13 3 38 6 55 l7 32 78 -2
79 -2 0 -258 0 -259 -24 0 c-44 0 -56 -10 -56 -46 l0 -34 140 0 140 0 0 34 c0
37 -12 46 -61 46 l-29 0 0 260 0 261 83 -3 82 -3 3 -52 3 -53 46 0 46 0 -7 53
c-3 28 -6 71 -6 95 l0 42 -305 0 -305 0 0 -95z"/>
<path d="M8029 7188 c-1 -79 -1 -297 0 -486 1 -269 -2 -341 -11 -340 -10 2
-14 -40 -16 -179 -2 -175 -3 -183 -22 -183 -18 0 -20 -7 -20 -69 0 -41 4 -71
11 -73 8 -3 7 -48 -2 -161 l-12 -157 -34 0 -33 0 0 -65 0 -65 35 0 35 0 0 -62
c0 -76 -26 -1023 -40 -1453 -5 -170 -10 -376 -11 -457 -1 -158 -3 -163 -54
-153 -11 2 -41 4 -67 4 l-48 1 3 528 2 527 23 3 c20 3 22 9 22 64 l0 61 -40
-6 -40 -5 0 693 c0 646 1 693 17 691 14 -1 17 8 16 49 l0 50 -239 0 -239 0 -3
-303 -2 -302 -258 2 -257 3 -3 303 -2 302 -241 0 -240 0 3 -52 c2 -39 7 -53
18 -53 13 0 15 -84 18 -687 l2 -686 -30 -7 c-16 -4 -34 -4 -40 0 -6 4 -10 -16
-10 -54 0 -54 2 -61 20 -61 20 0 20 -5 18 -531 l-3 -530 -105 0 c-58 0 -111 0
-117 0 -9 1 -13 17 -13 46 0 41 -2 45 -25 45 -14 0 -25 4 -25 9 0 10 38 24 61
22 30 -3 68 18 82 46 17 32 22 169 7 178 -8 5 -40 69 -40 81 0 2 28 9 63 16
l62 12 -68 13 c-38 7 -107 31 -153 53 l-84 41 0 74 0 74 33 3 c29 3 32 6 35
39 3 35 5 37 45 43 23 4 74 14 112 23 l70 16 -66 13 c-36 7 -102 31 -147 53
l-82 41 0 75 0 75 35 0 c33 0 35 2 35 34 0 40 -2 39 122 62 53 10 95 21 93 24
-3 4 -28 10 -57 13 -29 4 -90 25 -139 48 l-87 41 1 77 2 76 33 3 c29 3 32 6
32 37 0 37 -1 37 165 66 l70 12 -68 13 c-37 7 -105 31 -151 53 l-84 40 -1 75
-1 76 35 0 c34 0 35 1 35 38 l0 38 98 18 c125 24 139 32 69 40 -31 4 -86 23
-129 44 -59 29 -88 37 -153 42 l-79 5 3 48 c2 42 0 49 -18 54 -18 4 -21 13
-21 54 0 47 -1 48 -32 51 -38 4 -46 31 -10 36 28 4 29 30 0 34 -30 4 -34 26
-6 30 33 5 37 38 4 38 -16 0 -26 6 -26 15 0 9 9 15 25 15 18 0 25 5 25 20 0
15 -7 20 -25 20 -16 0 -25 6 -25 15 0 9 9 15 25 15 18 0 25 5 25 20 0 15 -7
20 -25 20 -16 0 -25 6 -25 15 0 9 9 15 25 15 18 0 25 5 25 20 0 15 -7 20 -25
20 -16 0 -25 6 -25 15 0 9 9 15 25 15 32 0 34 27 3 32 -13 2 -23 10 -23 18 0
8 10 16 23 18 12 2 22 10 22 17 0 7 -10 15 -22 17 -13 2 -23 10 -23 18 0 8 10
16 23 18 31 5 29 32 -3 32 -32 0 -33 24 -1 45 48 31 45 95 -6 121 -59 31 -118
-23 -96 -88 5 -15 18 -30 29 -33 29 -10 25 -45 -6 -45 -16 0 -25 -6 -25 -15 0
-9 9 -15 25 -15 18 0 25 -5 25 -20 0 -15 -7 -20 -25 -20 -16 0 -25 -6 -25 -15
0 -9 9 -15 25 -15 18 0 25 -5 25 -20 0 -15 -7 -20 -25 -20 -16 0 -25 -6 -25
-15 0 -9 9 -15 25 -15 16 0 25 -6 25 -15 0 -10 -10 -15 -29 -15 -24 0 -28 -3
-24 -20 3 -13 14 -20 29 -20 15 0 24 -6 24 -15 0 -9 -9 -15 -25 -15 -18 0 -25
-5 -25 -20 0 -15 7 -20 25 -20 16 0 25 -6 25 -15 0 -9 -10 -15 -26 -15 -33 0
-30 -33 4 -38 31 -5 28 -32 -4 -32 -33 0 -30 -33 4 -38 31 -5 28 -32 -3 -32
-16 0 -25 -6 -25 -15 0 -9 9 -15 25 -15 18 0 25 -5 25 -20 0 -16 -7 -20 -35
-20 l-35 0 0 -50 c0 -37 -4 -50 -14 -50 -11 0 -16 -15 -18 -52 l-3 -53 -80 -5
c-65 -5 -94 -13 -153 -42 -42 -21 -98 -40 -128 -44 -30 -3 -53 -9 -50 -12 3
-2 54 -14 113 -26 l108 -22 3 -37 c3 -34 6 -37 33 -37 l29 0 0 -75 0 -76 -83
-40 c-45 -22 -111 -45 -146 -51 -74 -14 -70 -16 82 -44 l87 -16 0 -33 c0 -29
4 -34 28 -37 27 -3 27 -4 30 -79 l3 -75 -88 -42 c-48 -23 -104 -44 -123 -47
-87 -15 -86 -17 10 -36 149 -29 140 -25 140 -64 0 -32 2 -35 30 -35 l30 0 0
-77 -1 -78 -92 -42 c-51 -23 -116 -45 -145 -49 -29 -4 -51 -9 -48 -11 2 -3 53
-15 113 -27 l108 -22 3 -37 c3 -34 6 -37 33 -37 l29 0 0 -75 0 -76 -82 -39
c-46 -22 -114 -46 -153 -53 l-70 -12 100 -19 c141 -26 145 -28 145 -71 0 -33
2 -36 28 -33 l27 3 3 -77 3 -78 -36 0 c-35 0 -35 0 -35 -45 0 -41 -2 -45 -25
-45 -23 0 -25 -4 -25 -45 l0 -45 -130 0 -130 0 0 1120 0 1120 -300 0 -300 0 0
-914 0 -913 -24 -46 c-34 -64 -34 -162 0 -213 19 -27 24 -48 24 -94 0 -33 -3
-60 -7 -60 -16 -1 -138 -2 -150 -1 -10 1 -13 203 -13 976 l0 975 -45 0 -44 0
-3 73 -3 72 -225 0 -225 0 -3 -72 -3 -73 -44 0 -45 0 -2 -976 -3 -976 -170 1
c-181 2 -187 3 -199 54 -5 23 -2 29 19 37 15 6 39 10 55 10 41 0 59 32 61 105
1 61 -16 110 -46 135 -25 21 -109 28 -162 15 -22 -5 -23 -3 -23 65 l0 70 50 0
49 0 3 58 3 57 153 30 c83 16 152 32 152 35 0 3 -33 11 -72 17 -40 7 -151 37
-245 68 l-173 57 0 104 0 104 28 1 c15 1 30 1 35 0 4 0 7 19 7 44 0 38 3 45
23 49 12 3 71 15 131 28 l109 22 -74 16 c-41 9 -111 35 -156 58 l-83 42 -318
0 -319 0 -97 -46 c-53 -25 -126 -51 -163 -58 l-68 -12 115 -23 c159 -31 148
-26 152 -74 3 -41 4 -42 38 -42 l35 0 0 -105 0 -105 -125 -43 c-151 -52 -295
-92 -332 -92 -66 0 -17 -18 125 -46 l152 -29 3 -58 3 -57 44 0 45 0 0 -175 0
-175 -45 0 c-26 0 -59 -7 -75 -15 -16 -9 -51 -18 -76 -22 -51 -7 -87 -34 -82
-61 2 -9 12 -18 23 -20 11 -2 24 -8 30 -13 5 -5 -64 -9 -173 -9 l-182 0 0 305
0 305 30 0 30 0 0 65 c0 36 -4 65 -8 65 -5 0 -7 37 -6 82 l3 82 183 37 c161
32 178 37 143 43 -79 14 -170 48 -287 106 l-118 60 -502 0 -501 0 -116 -59
c-115 -58 -205 -92 -290 -108 -40 -7 -30 -10 142 -43 l185 -35 4 -80 c3 -59 0
-83 -10 -90 -9 -7 -12 -28 -10 -65 3 -54 4 -55 36 -58 l32 -3 0 -305 0 -304
-212 -2 c-117 -1 -230 -2 -251 -1 l-37 1 0 -54 0 -54 7800 0 7800 0 0 54 0 55
-45 -2 c-45 -2 -59 15 -18 21 26 4 36 27 23 52 -11 20 -21 24 -85 35 -21 4
-52 13 -67 21 -36 19 -148 18 -174 -1 -10 -8 -33 -15 -51 -15 -25 0 -33 -5
-41 -29 -13 -37 -2 -53 44 -60 20 -3 39 -12 42 -20 3 -10 0 -12 -12 -8 -10 4
-38 7 -62 7 l-44 0 0 55 c0 41 -4 55 -15 55 -12 0 -14 54 -15 380 0 209 -3
386 -6 395 -5 13 9 15 105 15 l111 0 0 65 0 65 -110 0 -110 0 0 40 0 40 150 0
150 0 0 81 0 82 -82 -7 c-46 -4 -114 -9 -151 -13 -68 -6 -69 -6 -65 18 1 13
10 25 18 26 8 1 75 7 148 14 l132 11 0 63 0 63 -37 -8 c-21 -5 -105 -18 -188
-29 -419 -57 -853 -55 -1272 5 -94 13 -179 24 -187 24 -13 0 -16 -12 -16 -54
0 -30 4 -57 9 -60 4 -3 72 -11 150 -18 137 -11 141 -12 141 -35 l0 -23 -102 7
c-57 4 -123 8 -148 8 l-44 0 -1 -75 0 -75 153 -3 153 -3 -3 -37 -3 -37 -110
-5 -110 -5 0 -60 0 -60 109 -3 109 -3 -6 -392 c-4 -267 -9 -393 -16 -395 -6
-2 -11 -28 -11 -57 l0 -54 -267 -3 c-148 -2 -274 -1 -280 1 -10 2 -13 202 -13
957 l0 954 -165 0 -165 0 0 115 0 115 -175 0 -175 0 0 -115 0 -115 -170 0
-170 0 0 -105 0 -105 -64 0 -65 0 -3 42 -3 42 -90 -1 -90 -2 -3 -100 -3 -101
96 0 95 0 0 45 0 45 65 0 65 0 0 -135 0 -135 -65 0 -65 0 0 45 0 45 -95 0 -95
0 0 -105 0 -105 95 0 95 0 0 45 0 45 65 0 65 0 0 -130 0 -130 -65 0 -65 0 0
39 0 40 -91 3 c-50 2 -93 1 -95 -1 -2 -2 -4 -49 -4 -103 l0 -98 95 0 95 0 0
43 0 42 65 0 65 0 0 -132 0 -133 -65 0 -65 0 0 45 0 45 -95 0 -96 0 3 -102 3
-103 93 -3 92 -3 0 46 0 45 65 0 65 0 0 -130 0 -130 -65 0 -65 0 0 40 0 40
-95 0 -95 0 0 -100 0 -100 95 0 95 0 0 39 0 39 61 4 c33 1 63 1 65 -1 2 -2 4
-62 4 -133 l0 -128 -65 0 -65 0 0 45 0 45 -95 0 -95 0 0 -105 0 -105 95 0 95
0 0 45 0 45 65 0 66 0 -3 -96 -3 -95 -263 0 c-145 0 -267 3 -273 6 -5 4 -9 26
-9 50 0 40 3 45 28 51 15 4 32 11 39 16 13 11 53 84 53 98 0 12 -40 70 -70
102 -37 38 -117 44 -191 14 -40 -17 -199 610 -199 787 0 44 2 47 25 47 23 0
25 4 25 45 0 41 -2 45 -25 45 -22 0 -25 4 -25 38 0 21 -4 42 -9 48 -18 19 -77
470 -88 667 -5 103 -4 117 10 117 18 0 26 22 23 64 -2 27 -6 30 -37 30 l-34 1
-3 103 c-2 85 0 103 13 108 10 4 15 20 15 50 0 42 -1 44 -29 44 l-29 0 -7 380
-7 380 -33 0 -33 0 -7 -380 -7 -380 -34 0 c-34 0 -34 -1 -34 -45 0 -33 4 -45
15 -45 12 0 15 -19 15 -111 l0 -111 -32 4 c-33 3 -33 3 -36 -44 -3 -43 -1 -48
17 -48 18 0 21 -6 21 -40 0 -109 -44 -462 -98 -785 -6 -31 -12 -41 -29 -43
-20 -3 -23 -9 -23 -48 0 -41 2 -44 26 -44 l26 0 -7 -72 c-22 -247 -83 -482
-237 -922 l-63 -178 -70 0 c-38 0 -76 1 -82 1 -10 1 -13 220 -13 1061 l0 1059
-47 -3 -48 -2 -3 -82 -3 -82 -149 0 -149 0 -3 82 -3 82 -47 2 -48 3 0 -1059
c0 -841 -3 -1060 -12 -1061 -7 0 -62 0 -123 0 l-110 0 -5 1263 -5 1263 -332 3
-333 2 -2 -1079 c-3 -1011 -4 -1080 -20 -1098 -27 -29 -25 -159 2 -193 15 -19
20 -41 20 -92 0 -38 -3 -68 -7 -68 -5 -1 -42 -2 -83 -3 l-75 -2 -3 1345 c-1
876 -6 1348 -12 1354 -6 6 -10 75 -10 163 l0 153 25 0 c24 0 25 2 25 65 l0 65
-65 0 -65 0 0 -65 c0 -63 1 -65 25 -65 l25 0 0 -155 0 -155 -30 0 -30 0 0 90
c0 73 -3 90 -15 90 -11 0 -15 11 -15 40 l0 40 -235 0 -235 0 0 -40 c0 -29 -4
-40 -15 -40 -12 0 -15 -16 -15 -88 0 -49 -2 -91 -5 -94 -3 -3 -17 -3 -30 0
l-26 4 3 152 3 151 25 3 c24 3 25 6 24 65 l-2 62 -66 3 -66 3 0 -66 c0 -63 1
-65 25 -65 l25 0 0 -153 c0 -88 -4 -157 -10 -163 -6 -6 -11 -478 -12 -1353
l-3 -1343 -100 -1 -100 -2 -6 50 c-3 28 -9 174 -13 325 -3 151 -9 340 -12 420
-7 191 -34 1199 -34 1273 l0 57 35 0 35 0 0 65 0 65 -33 0 -33 0 -12 157 c-8
105 -9 159 -2 161 5 2 10 35 10 73 0 62 -2 69 -20 69 -19 0 -20 7 -20 185 0
143 -3 184 -12 182 -10 -1 -13 72 -14 338 -1 187 -2 404 -3 483 l-1 142 -50 0
-50 0 -1 -142z m61 -13 c0 -77 -4 -125 -10 -125 -6 0 -10 48 -10 125 0 77 4
125 10 125 6 0 10 -48 10 -125z m20 -170 c0 -10 -10 -15 -30 -15 -20 0 -30 5
-30 15 0 10 10 15 30 15 20 0 30 -5 30 -15z m-20 -170 c0 -77 -4 -125 -10
-125 -6 0 -10 48 -10 125 0 77 4 125 10 125 6 0 10 -48 10 -125z m20 -175 c0
-16 -7 -20 -30 -20 -23 0 -30 4 -30 20 0 16 7 20 30 20 23 0 30 -4 30 -20z
m-20 -175 c0 -77 -4 -125 -10 -125 -6 0 -10 48 -10 125 0 77 4 125 10 125 6 0
10 -48 10 -125z m3407 -12 c-2 -16 -4 -5 -4 22 0 28 2 40 4 28 2 -13 2 -35 0
-50z m0 -220 c-2 -32 -3 -8 -3 52 0 61 1 87 3 58 2 -29 2 -78 0 -110z m-2957
111 c0 -32 -2 -34 -35 -34 -32 0 -35 3 -35 28 0 36 3 39 40 40 28 1 30 -2 30
-34z m678 -2 c3 -31 2 -32 -32 -32 -34 0 -36 2 -36 34 0 32 2 34 33 32 28 -1
32 -5 35 -34z m-1088 -197 l0 -165 -50 0 -50 0 0 165 0 165 50 0 50 0 0 -165z
m-2456 79 c20 -8 21 -38 1 -54 -17 -14 -43 -7 -51 15 -6 15 11 45 26 45 5 0
15 -3 24 -6z m3366 -49 l0 -25 -195 0 -195 0 0 25 0 25 195 0 195 0 0 -25z
m2468 -78 c2 -37 0 -47 -12 -47 -12 0 -16 12 -16 51 0 66 24 62 28 -4z m-2428
-52 l0 -75 -235 0 -235 0 0 75 0 75 235 0 235 0 0 -75z m2428 -140 c-2 -68 -7
-100 -15 -103 -10 -3 -13 22 -13 101 0 57 3 107 7 110 17 17 24 -17 21 -108z
m-3338 5 l0 -40 -90 0 -90 0 0 40 0 40 90 0 90 0 0 -40z m410 -1300 l0 -1320
-40 0 -40 0 -1 313 c0 171 -1 355 0 407 0 52 0 506 0 1008 l1 912 40 0 40 0 0
-1320z m508 1303 c-3 -16 -24 -18 -241 -21 -232 -2 -237 -2 -237 18 0 20 6 20
241 20 224 0 240 -1 237 -17z m103 -1025 c0 -574 1 -1101 1 -1173 0 -71 0
-196 -1 -277 l-1 -148 -40 0 -40 0 0 1320 0 1320 40 0 40 0 1 -1042z m-2481
987 c0 -13 -30 -15 -210 -15 -180 0 -210 2 -210 15 0 13 30 15 210 15 180 0
210 -2 210 -15z m1000 0 c0 -13 -27 -15 -207 -13 -154 2 -207 6 -211 16 -3 9
43 12 207 12 182 0 211 -2 211 -15z m1378 -42 l3 -23 -240 0 -241 0 0 25 0 25
238 -2 237 -3 3 -22z m-1058 -153 c0 -157 0 -160 -21 -160 -20 0 -21 4 -16 58
4 31 9 98 13 147 3 50 7 96 9 103 11 34 15 -2 15 -148z m64 108 c3 -29 6 -101
6 -160 0 -101 -1 -108 -20 -108 -19 0 -20 7 -20 93 0 112 10 227 20 227 4 0
10 -24 14 -52z m60 -50 c4 -51 9 -121 13 -155 5 -60 5 -63 -16 -63 -21 0 -21
3 -21 161 0 174 13 205 24 57z m-1444 66 l0 -24 -190 0 c-178 0 -190 1 -190
18 0 10 3 21 6 25 4 3 89 6 190 5 l184 -1 0 -23z m960 0 l0 -24 -190 0 c-109
0 -190 4 -190 9 0 37 7 39 196 39 l184 1 0 -25z m1418 -51 l3 -23 -240 0 -241
0 0 25 0 25 238 -2 237 -3 3 -22z m934 -1213 c2 -677 2 -1235 0 -1240 -2 -6
-84 -10 -218 -10 -184 0 -214 2 -214 15 0 8 7 15 15 15 11 0 15 12 15 45 0 33
4 45 15 45 11 0 15 -12 15 -45 l0 -45 75 0 75 0 0 70 0 70 -50 0 c-27 0 -50 5
-50 10 0 6 23 10 50 10 l50 0 0 70 0 70 -55 0 c-30 0 -55 5 -55 10 0 6 25 10
55 10 l55 0 0 70 0 70 -75 0 -75 0 0 -41 c0 -52 -24 -48 -28 4 l-3 37 -75 0
-74 0 0 -35 c0 -31 -3 -35 -25 -35 l-25 0 0 1023 c0 563 3 1027 7 1030 3 4
138 7 300 7 l293 0 2 -1230z m1548 1215 c0 -12 -15 -15 -74 -15 -69 0 -95 8
-79 24 3 3 39 6 80 6 58 0 73 -3 73 -15z m-4877 -14 c11 -1 17 -9 17 -25 l0
-24 -187 1 c-185 2 -188 2 -191 24 -2 16 3 22 20 25 18 2 251 2 341 -1z m975
-6 c1 -3 2 -14 2 -25 0 -20 -5 -21 -186 -19 -148 1 -187 4 -191 15 -14 36 0
39 188 37 101 -1 185 -5 187 -8z m3872 -136 l0 -110 -46 3 -46 3 1 103 c0 56
0 104 1 107 0 3 20 5 45 5 l45 0 0 -111z m-2452 74 l3 -23 -240 0 -241 0 0 25
0 25 238 -2 237 -3 3 -22z m-2378 -38 l0 -25 -187 2 c-186 3 -188 3 -191 26
l-3 22 190 0 191 0 0 -25z m960 0 l0 -25 -187 2 c-186 3 -188 3 -191 26 l-3
22 190 0 191 0 0 -25z m1418 -42 l3 -23 -240 0 -241 0 0 25 0 25 238 -2 237
-3 3 -22z m-2378 -38 l0 -25 -190 0 -190 0 0 25 0 25 190 0 190 0 0 -25z m960
0 l0 -25 -189 0 -188 0 2 23 c1 12 3 23 4 25 0 1 84 2 186 2 l185 0 0 -25z
m1418 -47 l-3 -23 -237 -3 -238 -2 0 25 0 25 241 0 240 0 -3 -22z m-3380 -35
l3 -33 -53 0 -54 0 2 33 c1 17 2 33 3 35 1 2 22 2 49 0 45 -3 47 -4 50 -35z
m1002 2 l0 -25 -190 0 c-178 0 -190 1 -190 18 0 10 3 22 7 25 3 4 89 7 190 7
l183 0 0 -25z m962 0 l5 -25 -193 0 c-111 0 -194 4 -194 9 0 40 6 41 195 41
l183 0 4 -25z m-2682 -1090 l0 -1095 -179 0 c-109 0 -182 4 -186 10 -3 6 -1
10 4 10 6 0 11 20 11 45 0 25 5 45 10 45 6 0 10 -20 10 -45 l0 -45 70 0 70 0
0 65 0 65 -35 0 c-19 0 -35 5 -35 10 0 6 16 10 35 10 l35 0 0 60 c0 53 -2 60
-19 60 -11 0 -23 5 -26 10 -4 6 5 10 19 10 25 0 26 2 26 65 l0 65 -70 0 c-48
0 -70 -4 -70 -12 0 -9 -3 -9 -12 0 -15 15 -148 16 -148 1 0 -6 -7 -9 -15 -7
-14 3 -15 104 -15 881 0 482 0 879 0 882 0 3 117 5 260 5 l260 0 0 -1095z
m3242 1070 l-4 -25 -149 0 -149 0 0 25 0 25 154 0 153 0 -5 -25z m3378 -10 c0
-13 -17 -15 -117 -13 -82 2 -118 7 -121 16 -3 9 25 12 117 12 102 0 121 -2
121 -15z m-2522 -17 l-3 -23 -237 -3 -238 -2 0 25 0 25 241 0 240 0 -3 -22z
m-2380 -35 c-2 -15 -6 -27 -10 -25 -5 1 -89 2 -188 2 -168 0 -180 1 -180 18 0
10 3 21 6 25 3 3 89 6 191 7 l184 1 -3 -28z m962 2 l0 -25 -190 0 -190 0 4 23
c3 12 5 23 5 24 1 1 84 2 186 3 l185 1 0 -26z m-1930 -30 l0 -35 -85 0 -85 0
0 35 0 35 85 0 85 0 0 -35z m5738 -47 l-3 -83 -34 0 -34 0 2 75 c1 41 5 78 7
82 3 4 19 8 35 8 l30 0 -3 -82z m96 60 c3 -13 6 -51 6 -85 l0 -63 -35 0 -35 0
0 85 0 85 29 0 c21 0 30 -6 35 -22z m-3404 -23 l0 -35 -90 0 -90 0 0 35 0 35
90 0 90 0 0 -35z m5088 -77 l3 -98 -146 0 -145 0 0 100 0 101 143 -3 142 -3 3
-97z m-4168 67 l0 -25 -240 0 -240 0 0 25 0 25 240 0 240 0 0 -25z m1290
-1025 c0 -1023 0 -1030 -20 -1030 -20 0 -20 7 -20 1030 0 1023 0 1030 20 1030
20 0 20 -7 20 -1030z m400 0 c0 -1023 0 -1030 -20 -1030 -20 0 -20 7 -20 1030
0 1023 0 1030 20 1030 20 0 20 -7 20 -1030z m-6640 955 l0 -55 -197 2 -198 3
-3 53 -3 52 200 0 201 0 0 -55z m2570 30 l0 -25 -187 2 c-186 3 -188 3 -191
26 l-3 22 190 0 191 0 0 -25z m962 0 l-4 -25 -183 0 c-158 0 -184 2 -189 16
-3 9 -4 20 0 25 3 5 90 9 193 9 l188 0 -5 -25z m-1709 -36 c52 -27 59 -33 42
-40 -25 -10 -673 -10 -698 0 -15 6 -8 13 40 38 l58 32 248 0 248 1 62 -31z
m1297 -444 l0 -465 -257 2 -258 3 -3 463 -2 462 260 0 260 0 0 -465z m1828
438 l3 -23 -240 0 -241 0 0 25 0 25 238 -2 237 -3 3 -22z m-1071 -450 c-4
-258 -10 -705 -14 -995 l-6 -528 -30 0 -30 0 7 238 c3 130 13 464 21 742 8
278 17 619 21 758 6 215 9 252 22 252 13 0 14 -54 9 -467z m97 -185 c3 -359 9
-807 12 -995 l7 -343 -53 0 -53 0 6 348 c4 191 10 638 14 995 l6 647 27 0 27
0 7 -652z m56 601 c0 -68 28 -1061 40 -1439 5 -168 10 -349 10 -402 l0 -98
-28 0 -29 0 -7 578 c-3 317 -9 765 -13 995 -6 384 -5 417 10 417 14 0 17 -10
17 -51z m-1460 -4 l0 -25 -190 0 -190 0 0 25 0 25 190 0 190 0 0 -25z m960 0
l0 -25 -187 2 c-187 3 -188 3 -189 26 l-1 22 188 0 189 0 0 -25z m1418 -42 l3
-23 -240 0 -241 0 0 25 0 25 238 -2 237 -3 3 -22z m2366 2 c-4 -8 -10 -15 -14
-15 -4 0 -10 7 -14 15 -4 10 1 15 14 15 13 0 18 -5 14 -15z m104 4 c-2 -6 -8
-10 -13 -10 -5 0 -11 4 -13 10 -2 6 4 11 13 11 9 0 15 -5 13 -11z m-7328 -949
l0 -950 -290 0 -290 0 0 950 0 950 290 0 290 0 0 -950z m6480 920 l0 -30 -150
0 -150 0 0 30 0 30 150 0 150 0 0 -30z m-5310 5 c0 -8 -4 -15 -10 -15 -5 0
-10 7 -10 15 0 8 5 15 10 15 6 0 10 -7 10 -15z m50 0 c0 -8 -4 -15 -10 -15 -5
0 -10 7 -10 15 0 8 5 15 10 15 6 0 10 -7 10 -15z m47 -7 c-3 -8 -6 -5 -6 6 -1
11 2 17 5 13 3 -3 4 -12 1 -19z m63 7 c0 -8 -4 -15 -10 -15 -5 0 -10 7 -10 15
0 8 5 15 10 15 6 0 10 -7 10 -15z m50 0 c0 -8 -4 -15 -10 -15 -5 0 -10 7 -10
15 0 8 5 15 10 15 6 0 10 -7 10 -15z m60 -6 c0 -5 -4 -9 -10 -9 -5 0 -10 7
-10 16 0 8 5 12 10 9 6 -3 10 -10 10 -16z m50 6 c0 -8 -4 -15 -10 -15 -5 0
-10 7 -10 15 0 8 5 15 10 15 6 0 10 -7 10 -15z m50 0 c0 -8 -4 -15 -10 -15 -5
0 -10 7 -10 15 0 8 5 15 10 15 6 0 10 -7 10 -15z m60 0 c0 -8 -4 -15 -10 -15
-5 0 -10 7 -10 15 0 8 5 15 10 15 6 0 10 -7 10 -15z m50 0 c0 -8 -4 -15 -10
-15 -5 0 -10 7 -10 15 0 8 5 15 10 15 6 0 10 -7 10 -15z m50 0 c0 -8 -4 -15
-10 -15 -5 0 -10 7 -10 15 0 8 5 15 10 15 6 0 10 -7 10 -15z m780 -20 l0 -25
-190 0 -190 0 0 25 0 25 190 0 190 0 0 -25z m960 0 l0 -25 -190 0 c-178 0
-190 1 -190 18 0 10 3 22 7 25 3 4 89 7 190 7 l183 0 0 -25z m3731 -38 c-8 -8
-11 -4 -11 14 0 33 14 47 18 19 2 -12 -1 -27 -7 -33z m191 23 c5 -31 -6 -41
-16 -15 -5 13 1 45 9 45 1 0 5 -13 7 -30z m-112 -7 c0 -20 -3 -24 -11 -16 -7
7 -9 19 -6 27 10 24 17 19 17 -11z m41 -10 c-9 -16 -10 -14 -11 12 0 21 3 26
11 18 8 -8 8 -16 0 -30z m1329 -33 l0 -70 -105 0 -105 0 0 70 0 70 105 0 105
0 0 -70z m498 3 l-3 -68 -232 -3 -233 -2 0 70 0 70 235 0 236 0 -3 -67z m242
-3 l0 -70 -105 0 -105 0 0 70 0 70 105 0 105 0 0 -70z m-4502 23 l3 -23 -240
0 -241 0 0 25 0 25 238 -2 237 -3 3 -22z m-3578 -38 c0 -45 0 -45 -35 -45 -35
0 -35 0 -35 45 0 45 0 45 35 45 35 0 35 0 35 -45z m260 1 l0 -45 -87 -3 c-142
-5 -143 -4 -143 48 l0 44 115 0 115 0 0 -44z m100 -1 c0 -43 -1 -45 -30 -45
-29 0 -30 2 -30 45 0 43 1 45 30 45 29 0 30 -2 30 -45z m4840 10 l0 -25 -150
0 -150 0 0 25 0 25 150 0 150 0 0 -25z m-4000 -11 c0 -13 -7 -24 -16 -26 -9
-2 -95 -2 -190 0 -159 3 -174 4 -174 21 0 10 3 21 7 25 4 4 90 6 190 5 182 -3
183 -3 183 -25z m960 -3 l0 -26 -187 2 c-188 2 -202 5 -189 38 4 12 37 14 191
14 l185 -1 0 -27z m3790 -23 c0 -5 -13 -8 -30 -8 -35 0 -36 2 -13 36 l16 26
13 -24 c7 -12 13 -26 14 -30z m121 10 c8 -16 5 -18 -26 -18 l-36 0 17 31 c17
33 18 32 45 -13z m-2493 -30 l-3 -23 -237 -3 -238 -2 0 25 0 25 241 0 240 0
-3 -22z m1622 -13 c0 -13 -23 -15 -150 -15 -127 0 -150 2 -150 15 0 13 23 15
150 15 127 0 150 -2 150 -15z m1722 -55 l-4 -70 -54 0 -54 0 0 70 0 70 58 0
57 0 -3 -70z m-5722 25 l0 -25 -190 0 -190 0 0 25 0 25 190 0 190 0 0 -25z
m960 0 l0 -25 -185 0 c-102 0 -185 3 -186 8 0 4 -2 15 -4 25 -3 16 11 17 186
17 l189 0 0 -25z m3773 -1 c-16 -25 -17 -25 -30 -8 -20 27 -16 34 17 34 l30 0
-17 -26z m135 1 c-11 -24 -12 -24 -30 -9 -26 24 -22 34 12 34 28 0 29 -1 18
-25z m-5708 -9 c0 -12 -34 -14 -212 -13 -159 2 -212 5 -216 15 -3 9 44 12 212
12 180 0 216 -2 216 -14z m7720 -21 l0 -35 -475 0 -475 0 0 35 0 35 475 0 475
0 0 -35z m-4500 -10 l0 -25 -240 0 -240 0 0 25 0 25 240 0 240 0 0 -25z m2390
-22 c-1 -44 -2 -47 -15 -29 -18 24 -19 48 -3 64 18 18 18 16 18 -35z m60 3 c0
-6 -7 -20 -15 -30 -14 -18 -15 -16 -15 30 1 45 2 48 15 30 8 -11 15 -25 15
-30z m-902 27 c-43 -2 -113 -2 -155 0 -43 1 -8 3 77 3 85 0 120 -2 78 -3z
m756 -9 c5 -12 -22 -71 -29 -62 -1 2 0 20 3 41 4 39 16 48 26 21z m224 -30
l-3 -29 -13 23 c-8 13 -11 31 -7 39 9 26 27 0 23 -33z m-5656 -11 c31 -16 57
-31 57 -34 2 -14 -105 -19 -373 -19 -267 0 -356 5 -356 19 0 3 26 18 58 33 57
26 58 26 307 27 l250 1 57 -27z m748 2 l0 -25 -190 0 -190 0 0 25 0 25 190 0
190 0 0 -25z m962 0 l-4 -25 -184 0 c-101 0 -184 3 -185 8 0 4 -2 15 -4 25 -3
16 11 17 189 17 l193 0 -5 -25z m3038 -5 c0 -19 -7 -20 -150 -20 -143 0 -150
1 -150 20 0 19 7 20 150 20 143 0 150 -1 150 -20z m-1622 -32 l-3 -23 -237 -3
-238 -2 0 25 0 25 241 0 240 0 -3 -22z m2357 -8 l16 -30 -46 0 -46 0 23 30
c12 17 25 30 30 30 4 0 14 -13 23 -30z m148 1 c9 -16 17 -31 17 -33 0 -2 -18
-2 -40 0 -45 5 -47 8 -24 40 20 29 26 28 47 -7z m1992 19 c-4 -6 -173 -10
-476 -10 -306 0 -469 3 -469 10 0 7 165 10 476 10 314 0 473 -3 469 -10z
m-6875 -55 l0 -25 -190 0 -190 0 0 25 0 25 190 0 190 0 0 -25z m960 0 l0 -25
-184 0 c-159 0 -185 2 -190 16 -3 9 -4 20 0 25 3 5 88 9 190 9 l184 0 0 -25z
m2968 18 c-43 -2 -113 -2 -155 0 -43 1 -8 3 77 3 85 0 120 -2 78 -3z m2212
-68 l0 -65 -105 0 -105 0 0 65 0 65 105 0 105 0 0 -65z m500 0 l0 -64 -225 -3
c-124 -2 -230 -1 -235 0 -6 2 -10 33 -10 68 l0 64 235 0 235 0 0 -65z m240 1
c0 -35 -4 -66 -10 -68 -5 -1 -52 -2 -105 0 l-95 3 0 65 0 64 105 0 105 0 0
-64z m-8190 19 c0 -8 -4 -15 -10 -15 -5 0 -10 7 -10 15 0 8 5 15 10 15 6 0 10
-7 10 -15z m50 0 c0 -8 -4 -15 -10 -15 -5 0 -10 7 -10 15 0 8 5 15 10 15 6 0
10 -7 10 -15z m47 -7 c-3 -8 -6 -5 -6 6 -1 11 2 17 5 13 3 -3 4 -12 1 -19z
m63 7 c0 -8 -4 -15 -10 -15 -5 0 -10 7 -10 15 0 8 5 15 10 15 6 0 10 -7 10
-15z m50 0 c0 -8 -4 -15 -10 -15 -5 0 -10 7 -10 15 0 8 5 15 10 15 6 0 10 -7
10 -15z m60 6 c0 -6 -4 -13 -10 -16 -5 -3 -10 1 -10 9 0 9 5 16 10 16 6 0 10
-4 10 -9z m50 -6 c0 -8 -4 -15 -10 -15 -5 0 -10 7 -10 15 0 8 5 15 10 15 6 0
10 -7 10 -15z m50 -1 c0 -8 -4 -12 -10 -9 -5 3 -10 10 -10 16 0 5 5 9 10 9 6
0 10 -7 10 -16z m60 7 c0 -6 -4 -13 -10 -16 -5 -3 -10 1 -10 9 0 9 5 16 10 16
6 0 10 -4 10 -9z m50 -6 c0 -8 -4 -15 -10 -15 -5 0 -10 7 -10 15 0 8 5 15 10
15 6 0 10 -7 10 -15z m50 -1 c0 -8 -4 -12 -10 -9 -5 3 -10 10 -10 16 0 5 5 9
10 9 6 0 10 -7 10 -16z m3160 -9 l0 -25 -240 0 -240 0 0 25 0 25 240 0 240 0
0 -25z m1620 -1 c0 -12 -26 -14 -150 -14 -124 0 -150 3 -150 14 0 19 28 22
178 18 98 -3 122 -6 122 -18z m734 5 c4 -3 -3 -14 -15 -25 -20 -18 -21 -18
-35 1 -8 10 -14 22 -14 25 0 9 56 7 64 -1z m166 1 c-1 -3 -7 -14 -15 -24 -14
-19 -15 -19 -35 -1 -28 25 -25 32 15 31 19 -1 35 -3 35 -6z m-4902 -48 l-3
-24 -185 0 c-185 0 -200 2 -187 35 3 9 54 12 191 12 l187 0 -3 -23z m964 19
c4 -1 4 -10 0 -22 -8 -20 -15 -21 -184 -21 -97 0 -181 2 -186 6 -7 4 -10 41
-3 41 31 0 368 -4 373 -4z m3698 -21 c8 -16 7 -26 -7 -45 -20 -27 -38 -33 -29
-9 3 9 6 29 6 45 0 34 14 38 30 9z m110 -32 l-1 -53 -24 29 c-22 28 -23 30 -7
52 26 35 32 29 32 -28z m58 -19 c-12 -16 -23 -29 -25 -29 -2 0 -3 23 -3 52 l0
51 24 -22 25 -23 -21 -29z m110 23 c11 -48 5 -52 -26 -19 -20 21 -21 25 -6 46
19 27 20 26 32 -27z m-6140 -14 l3 -48 -35 0 -36 0 0 51 0 50 33 -3 c31 -3 32
-5 35 -50z m262 2 l0 -50 -115 0 -115 0 0 43 c0 24 3 47 7 50 3 4 55 7 115 7
l108 0 0 -50z m100 0 c0 -49 -1 -50 -30 -50 -29 0 -30 1 -30 50 0 49 1 50 30
50 29 0 30 -1 30 -50z m4840 30 c0 -6 -57 -10 -150 -10 -93 0 -150 4 -150 10
0 6 57 10 150 10 93 0 150 -4 150 -10z m1723 -40 c-1 -25 -2 -57 -2 -72 -1
-27 -3 -28 -56 -28 l-55 0 0 75 0 76 57 -3 58 -3 -2 -45z m-3345 13 l3 -23
-240 0 -241 0 0 25 0 25 238 -2 237 -3 3 -22z m1622 -28 c0 -13 -23 -15 -150
-15 -127 0 -150 2 -150 15 0 13 23 15 150 15 127 0 150 -2 150 -15z m740 -47
c0 -5 -22 -8 -50 -8 -27 0 -50 3 -50 7 0 4 12 20 27 36 l28 28 22 -28 c13 -15
23 -31 23 -35z m163 31 c15 -17 27 -33 27 -35 0 -2 -25 -4 -55 -4 -30 0 -55 3
-55 6 0 8 44 63 50 63 3 1 18 -13 33 -30z m2742 -24 c196 -17 570 -20 766 -5
105 8 287 30 444 54 6 0 11 -11 13 -25 4 -30 16 -28 -243 -51 -219 -20 -986
-17 -1196 5 -92 9 -172 17 -178 17 -6 0 -11 13 -11 28 l0 28 118 -18 c64 -10
194 -24 287 -33z m-7645 20 l0 -25 -187 2 c-186 3 -188 3 -191 26 l-3 22 190
0 191 0 0 -25z m962 0 l-4 -25 -187 2 c-157 3 -186 5 -187 18 0 8 1 18 3 23 2
4 89 7 192 7 l188 0 -5 -25z m5918 -20 l0 -35 -475 0 -475 0 0 35 0 35 475 0
475 0 0 -35z m-4516 9 c9 -3 16 -15 16 -25 0 -18 -11 -19 -240 -19 -230 0
-240 1 -240 19 0 11 6 22 13 24 18 8 432 8 451 1z m1636 -24 c0 -6 -57 -10
-150 -10 -93 0 -150 4 -150 10 0 6 57 10 150 10 93 0 150 -4 150 -10z m-4840
-20 c0 -6 -78 -10 -215 -10 -137 0 -215 4 -215 10 0 6 78 10 215 10 137 0 215
-4 215 -10z m840 -25 l0 -25 -190 0 -190 0 0 25 0 25 190 0 190 0 0 -25z m960
0 l0 -25 -184 0 c-185 0 -204 4 -192 35 4 12 38 15 191 15 l185 0 0 -25z
m4010 -4 c0 -10 -8 -22 -17 -25 -10 -4 -93 -6 -185 -5 l-168 2 0 23 0 24 185
0 c175 0 185 -1 185 -19z m-970 -11 c0 -19 -7 -20 -150 -20 -143 0 -150 1
-150 20 0 19 7 20 150 20 143 0 150 -1 150 -20z m2648 3 c-130 -2 -346 -2
-480 0 -134 1 -27 2 237 2 264 0 373 -1 243 -2z m952 -19 c0 -20 -4 -25 -16
-20 -9 3 -22 6 -30 6 -8 0 -14 9 -14 20 0 16 7 20 30 20 26 0 30 -4 30 -26z
m555 11 c299 11 310 10 313 -12 3 -20 -4 -21 -208 -28 -117 -4 -303 -4 -415 0
-185 7 -204 9 -208 26 -3 10 -1 19 4 21 5 2 91 0 191 -5 101 -4 246 -5 323 -2z
m415 -5 c0 -15 -7 -20 -25 -20 -14 0 -28 -1 -32 -2 -5 -2 -9 7 -11 20 -3 19 1
22 32 22 29 0 36 -4 36 -20z m-6192 -12 l-3 -23 -237 -3 -238 -3 0 26 0 25
241 0 240 0 -3 -22z m-3118 -17 l55 -29 -43 -12 c-52 -13 -645 -10 -676 4 -16
8 -11 13 35 37 l54 28 260 0 260 0 55 -28z m-2810 -33 l85 -43 -55 -12 c-66
-16 -827 -13 -874 3 -29 10 -28 11 55 51 l84 41 310 1 309 1 86 -42z m9690
-28 l0 -70 -105 0 -105 0 0 70 0 70 105 0 105 0 0 -70z m500 0 l0 -70 -235 0
-235 0 0 70 0 70 235 0 235 0 0 -70z m240 0 l0 -70 -105 0 -105 0 0 70 0 70
105 0 105 0 0 -70z m-6880 28 l0 -33 -188 1 c-168 1 -187 3 -190 18 -9 44 -2
46 193 46 l185 0 0 -32z m960 0 l0 -33 -187 1 c-175 1 -187 2 -189 20 -7 43
-3 44 191 44 l185 0 0 -32z m6515 10 c341 -24 1144 -14 1358 18 l37 6 0 -51 0
-51 -815 0 -815 0 0 51 c0 50 0 51 28 45 15 -3 108 -11 207 -18z m-3547 5
c-43 -2 -113 -2 -155 0 -43 1 -8 3 77 3 85 0 120 -2 78 -3z m1090 -5 c-4 -10
-62 -14 -236 -16 -202 -2 -232 0 -232 13 0 13 32 15 236 15 184 0 235 -3 232
-12z m-2640 -40 l-3 -23 -237 -3 -238 -2 0 25 0 25 241 0 240 0 -3 -22z m1622
-8 c0 -19 -6 -20 -150 -20 -141 0 -150 1 -150 19 0 18 9 19 150 20 144 2 150
1 150 -19z m968 -22 c-3 -23 -5 -23 -185 -26 l-183 -2 0 25 0 25 186 0 185 0
-3 -22z m-6278 -3 c0 -8 -4 -15 -10 -15 -5 0 -10 7 -10 15 0 8 5 15 10 15 6 0
10 -7 10 -15z m50 -7 c0 -16 -3 -19 -11 -11 -6 6 -8 16 -5 22 11 17 16 13 16
-11z m47 -10 c-3 -7 -5 -2 -5 12 0 14 2 19 5 13 2 -7 2 -19 0 -25z m63 11 c0
-11 -4 -17 -10 -14 -5 3 -10 13 -10 21 0 8 5 14 10 14 6 0 10 -9 10 -21z m50
-1 c0 -16 -3 -19 -11 -11 -6 6 -8 16 -5 22 11 17 16 13 16 -11z m52 -10 c-9
-9 -12 -7 -12 12 0 19 3 21 12 12 9 -9 9 -15 0 -24z m58 11 c0 -11 -4 -17 -10
-14 -5 3 -10 13 -10 21 0 8 5 14 10 14 6 0 10 -9 10 -21z m50 -1 c0 -16 -3
-19 -11 -11 -6 6 -8 16 -5 22 11 17 16 13 16 -11z m52 -10 c-9 -9 -12 -7 -12
12 0 19 3 21 12 12 9 -9 9 -15 0 -24z m58 17 c0 -8 -4 -15 -10 -15 -5 0 -10 7
-10 15 0 8 5 15 10 15 6 0 10 -7 10 -15z m50 -7 c0 -16 -3 -19 -11 -11 -6 6
-8 16 -5 22 11 17 16 13 16 -11z m6504 -18 c-4 -112 3 -100 -59 -100 l-55 0 0
70 0 70 58 0 57 0 -1 -40z m-5724 -4 l0 -24 -230 -1 -230 -2 0 26 0 25 230 0
230 0 0 -24z m1050 -1 l0 -25 -222 0 c-123 0 -227 4 -233 8 -5 4 -11 15 -11
25 -2 16 15 17 232 17 l234 0 0 -25z m-5875 -60 c71 -36 135 -65 142 -65 7 0
13 -4 13 -8 0 -4 -51 -18 -113 -30 -108 -21 -137 -22 -658 -22 -517 0 -549 1
-656 22 -62 12 -113 24 -113 28 0 3 30 19 68 35 37 16 99 46 137 66 l70 38
490 1 490 0 130 -65z m7203 43 l-3 -23 -237 -3 -238 -2 0 25 0 25 241 0 240 0
-3 -22z m1622 12 c0 -6 -57 -10 -150 -10 -93 0 -150 4 -150 10 0 6 57 10 150
10 93 0 150 -4 150 -10z m-8252 -28 c2 -15 -2 -22 -12 -22 -11 0 -16 9 -16 26
0 31 23 28 28 -4z m62 3 c0 -16 -6 -25 -15 -25 -9 0 -15 9 -15 25 0 16 6 25
15 25 9 0 15 -9 15 -25z m70 0 c0 -18 -5 -25 -20 -25 -15 0 -20 7 -20 25 0 18
5 25 20 25 15 0 20 -7 20 -25z m60 0 c0 -16 -6 -25 -15 -25 -9 0 -15 9 -15 25
0 16 6 25 15 25 9 0 15 -9 15 -25z m70 0 c0 -16 -6 -25 -15 -25 -9 0 -15 9
-15 25 0 16 6 25 15 25 9 0 15 -9 15 -25z m68 -3 c3 -17 -2 -22 -17 -22 -16 0
-21 6 -21 26 0 33 33 30 38 -4z m62 3 c0 -16 -6 -25 -15 -25 -9 0 -15 9 -15
25 0 16 6 25 15 25 9 0 15 -9 15 -25z m70 0 c0 -18 -5 -25 -20 -25 -15 0 -20
7 -20 25 0 18 5 25 20 25 15 0 20 -7 20 -25z m60 0 c0 -16 -6 -25 -15 -25 -9
0 -15 9 -15 25 0 16 6 25 15 25 9 0 15 -9 15 -25z m70 0 c0 -18 -5 -25 -20
-25 -20 0 -28 28 -13 43 15 16 33 6 33 -18z m60 0 c0 -16 -6 -25 -15 -25 -9 0
-15 9 -15 25 0 16 6 25 15 25 9 0 15 -9 15 -25z m11204 -127 c3 -84 7 -309 9
-501 l2 -347 -48 0 c-27 0 -46 4 -43 8 3 5 6 181 8 393 1 211 4 432 6 492 l3
107 29 0 28 0 6 -152z m386 112 l0 -40 -174 0 -174 0 -4 40 -4 40 178 0 178 0
0 -40z m100 0 c0 -39 -1 -40 -35 -40 -34 0 -35 1 -35 40 0 39 1 40 35 40 34 0
35 -1 35 -40z m380 0 l0 -40 -175 0 -175 0 0 40 0 40 175 0 175 0 0 -40z m103
-282 c4 -178 7 -403 7 -500 l0 -178 -46 0 -47 0 6 188 c4 103 7 328 7 500 l0
312 33 0 34 0 6 -322z m-9775 255 c-3 -46 -4 -48 -35 -51 l-33 -3 0 50 0 51
36 0 35 0 -3 -47z m262 -3 l0 -50 -115 0 -115 0 0 50 0 50 115 0 115 0 0 -50z
m100 0 c0 -49 -1 -50 -30 -50 -29 0 -30 1 -30 50 0 49 1 50 30 50 29 0 30 -1
30 -50z m5547 23 l-27 -28 -27 28 -28 27 55 0 55 0 -28 -27z m213 2 c-29 -31
-28 -31 -65 0 l-30 24 59 1 59 0 -23 -25z m1960 -20 l0 -35 -475 0 -475 0 0
35 0 35 475 0 475 0 0 -35z m-2880 10 c0 -13 -23 -15 -150 -15 -127 0 -150 2
-150 15 0 13 23 15 150 15 127 0 150 -2 150 -15z m627 -16 l23 -25 -35 -34
-34 -33 5 49 c5 49 12 80 17 73 1 -2 12 -16 24 -30z m-4627 -499 l0 -520 -210
0 -210 0 0 520 0 520 210 0 210 0 0 -520z m550 505 c0 -13 -33 -15 -257 -13
-194 2 -257 6 -261 16 -3 9 53 12 257 12 227 0 261 -2 261 -15z m450 -505 l0
-520 -65 0 c-37 0 -65 4 -65 10 0 6 18 10 40 10 l40 0 0 145 0 145 -54 0 c-40
0 -55 -4 -60 -16 -3 -9 -6 -60 -6 -115 l0 -99 -30 0 -30 0 0 115 0 115 -60 0
-60 0 0 -96 0 -95 -32 3 -33 3 -1 450 c-1 248 1 453 3 458 2 4 96 7 209 7
l204 0 0 -520z m3769 470 c2 -56 -5 -61 -39 -25 l-23 25 23 25 c13 14 26 25
30 25 4 0 7 -22 9 -50z m69 27 l22 -23 -30 -29 -30 -29 0 52 c0 58 6 63 38 29z
m137 -14 c3 -21 8 -46 10 -55 5 -26 -5 -22 -42 14 l-33 32 22 23 c29 31 36 29
43 -14z m-2595 -8 l0 -25 -240 0 -240 0 0 25 0 25 240 0 240 0 0 -25z m-6500
-62 l0 -64 -42 3 -43 3 -3 54 c-4 73 -1 77 47 73 l41 -4 0 -65z m320 7 l0 -71
-142 3 -143 3 -3 62 -3 62 143 4 c79 1 144 4 146 5 1 1 2 -30 2 -68z m128 -2
l-3 -63 -42 -3 -43 -3 0 65 0 66 45 0 46 0 -3 -62z m7668 41 c3 -5 -59 -9
-146 -9 -102 0 -149 3 -145 10 8 13 283 12 291 -1z m-3446 -434 c0 -419 -1
-435 -19 -445 -38 -20 -41 -13 -41 95 l0 105 -75 0 -75 0 0 -135 0 -135 49 0
c31 0 53 -5 61 -15 11 -13 -13 -15 -202 -15 l-215 0 -2 490 -1 490 260 0 260
0 0 -435z m6950 398 l0 -33 -90 0 -90 0 0 33 0 32 90 0 90 0 0 -32z m953 28
c12 -1 17 -9 17 -31 l0 -30 -415 0 -415 0 0 28 c0 16 2 31 4 33 3 3 728 3 809
0z m320 0 c12 -1 17 -9 17 -31 l0 -31 -92 3 c-80 3 -93 5 -96 21 -7 37 3 42
79 41 41 -1 82 -2 92 -3z m-4066 -23 c13 -12 23 -25 23 -30 0 -4 -26 -8 -57
-8 l-57 0 29 30 c16 17 31 30 34 30 2 0 15 -10 28 -22z m218 -8 l29 -30 -64 0
-64 0 29 30 c16 17 32 30 35 30 3 0 19 -13 35 -30z m1955 13 c0 -7 -592 -7
-850 0 -58 1 110 4 373 5 262 1 477 -1 477 -5z m-7720 -28 c0 -13 -31 -15
-215 -15 -184 0 -215 2 -215 15 0 13 31 15 215 15 184 0 215 -2 215 -15z
m3218 -12 l3 -23 -240 0 -241 0 0 25 0 25 238 -2 237 -3 3 -22z m1622 7 c0
-19 -7 -20 -150 -20 -143 0 -150 1 -150 20 0 19 7 20 150 20 143 0 150 -1 150
-20z m2140 -74 c0 -75 5 -73 -127 -68 l-83 3 0 65 0 64 105 0 105 0 0 -64z
m500 -1 l0 -65 -235 0 -235 0 0 65 0 65 235 0 235 0 0 -65z m240 1 c0 -75 6
-72 -121 -68 l-89 3 0 65 0 64 105 0 105 0 0 -64z m-12800 -16 c0 -49 -1 -50
-30 -50 -29 0 -30 1 -30 50 0 49 1 50 30 50 29 0 30 -1 30 -50z m100 0 l0 -50
-35 0 -35 0 0 50 0 50 35 0 35 0 0 -50z m106 26 c12 -48 2 -71 -33 -74 l-33
-3 0 50 c0 50 1 51 30 51 23 0 31 -5 36 -24z m104 -26 l0 -50 -35 0 -35 0 0
50 0 50 35 0 35 0 0 -50z m100 0 l0 -50 -35 0 -35 0 0 50 0 50 35 0 35 0 0
-50z m100 0 l0 -50 -35 0 -35 0 0 50 0 50 35 0 35 0 0 -50z m110 0 l0 -50 -35
0 -35 0 0 50 0 50 35 0 35 0 0 -50z m100 0 l0 -50 -35 0 -35 0 0 50 0 50 35 0
35 0 0 -50z m100 0 l0 -50 -35 0 -35 0 0 50 0 50 35 0 35 0 0 -50z m100 0 c0
-49 -1 -50 -29 -50 -32 0 -40 18 -32 73 3 22 8 27 32 27 28 0 29 -2 29 -50z
m100 0 c0 -49 -1 -50 -30 -50 -29 0 -30 1 -30 50 0 49 1 50 30 50 29 0 30 -1
30 -50z m4153 18 c57 -29 60 -32 37 -39 -34 -10 -670 -10 -695 0 -17 7 -11 13
40 39 l60 31 248 1 248 0 62 -32z m5477 29 c0 -2 -14 -13 -31 -26 -28 -21 -32
-22 -55 -7 -38 25 -29 36 31 36 30 0 55 -1 55 -3z m200 -22 c-29 -31 -28 -31
-65 0 l-30 24 59 1 59 0 -23 -25z m3537 -237 c-4 -145 -7 -323 -7 -395 0 -110
-3 -133 -15 -133 -10 0 -15 -15 -17 -56 l-3 -55 -254 1 c-140 0 -257 3 -259 5
-3 2 -5 30 -6 62 l-1 57 44 16 c78 27 128 142 81 185 -11 10 -20 23 -20 29 0
6 -17 29 -38 52 -33 35 -46 42 -91 47 -30 4 -62 2 -72 -3 -10 -6 -30 -10 -45
-10 -30 0 -64 -25 -64 -47 0 -8 -9 -26 -20 -40 -16 -21 -19 -37 -16 -92 2 -36
9 -78 16 -93 13 -26 55 -51 81 -47 8 1 29 -2 47 -6 28 -7 32 -12 32 -40 0 -35
-25 -73 -50 -76 -8 -1 -39 -1 -67 0 l-53 1 0 54 c0 30 -4 56 -10 58 -6 2 -12
149 -17 396 l-6 392 418 0 418 0 -6 -262z m-4539 245 c-43 -2 -113 -2 -155 0
-43 1 -8 3 77 3 85 0 120 -2 78 -3z m702 -57 c0 -11 -79 -71 -84 -65 -2 2 3
33 11 67 l15 64 29 -28 c16 -15 29 -33 29 -38z m-2252 27 l3 -22 -238 -3
c-131 -2 -241 -1 -245 2 -4 3 -5 15 -1 28 l5 22 237 -2 c234 -3 236 -3 239
-25z m2492 -32 c0 -4 -16 -22 -35 -41 l-35 -34 0 68 0 67 35 -27 c19 -14 35
-29 35 -33z m139 3 c7 -30 11 -57 9 -60 -3 -2 -23 10 -47 27 l-42 32 27 28
c15 16 31 29 34 29 4 0 12 -25 19 -56z m-239 -9 c0 -30 -3 -55 -7 -55 -4 0
-22 14 -40 32 l-32 31 31 24 c18 12 36 23 40 23 4 0 8 -25 8 -55z m952 -20 l0
-69 -56 -4 -56 -4 0 77 0 76 56 -3 56 -3 0 -70z m-9392 45 c0 -20 -7 -20 -270
-20 -263 0 -270 0 -270 20 0 20 7 20 270 20 263 0 270 0 270 -20z m7670 -12
c0 -17 -11 -18 -150 -18 -143 0 -150 1 -150 20 0 19 7 19 150 18 139 -1 150
-3 150 -20z m-1813 -38 c188 0 194 -1 191 -20 -3 -19 -13 -20 -240 -22 -241
-3 -248 -2 -248 32 0 12 39 19 74 14 16 -2 116 -4 223 -4z m2513 -25 l34 -35
-83 0 -84 0 44 34 c24 19 46 35 50 35 3 1 20 -15 39 -34z m265 -9 l30 -25 -85
0 -85 0 39 34 c42 37 46 37 101 -9z m-8468 -23 c101 -32 183 -61 183 -64 0 -3
-40 -13 -88 -22 -126 -24 -938 -25 -1058 -1 -44 8 -86 18 -94 20 -8 3 46 25
120 48 74 24 153 50 175 59 32 13 91 16 310 17 l270 1 182 -58z m2193 32 c0
-8 -4 -15 -10 -15 -5 0 -10 7 -10 15 0 8 5 15 10 15 6 0 10 -7 10 -15z m50 0
c0 -8 -4 -15 -10 -15 -5 0 -10 7 -10 15 0 8 5 15 10 15 6 0 10 -7 10 -15z m47
-7 c-3 -8 -6 -5 -6 6 -1 11 2 17 5 13 3 -3 4 -12 1 -19z m63 7 c0 -8 -4 -15
-10 -15 -5 0 -10 7 -10 15 0 8 5 15 10 15 6 0 10 -7 10 -15z m50 0 c0 -8 -4
-15 -10 -15 -5 0 -10 7 -10 15 0 8 5 15 10 15 6 0 10 -7 10 -15z m55 6 c3 -5
1 -12 -5 -16 -5 -3 -10 1 -10 9 0 18 6 21 15 7z m55 -6 c0 -8 -4 -15 -10 -15
-5 0 -10 7 -10 15 0 8 5 15 10 15 6 0 10 -7 10 -15z m50 0 c0 -8 -4 -15 -10
-15 -5 0 -10 7 -10 15 0 8 5 15 10 15 6 0 10 -7 10 -15z m60 6 c0 -6 -4 -13
-10 -16 -5 -3 -10 1 -10 9 0 9 5 16 10 16 6 0 10 -4 10 -9z m50 -6 c0 -8 -4
-15 -10 -15 -5 0 -10 7 -10 15 0 8 5 15 10 15 6 0 10 -7 10 -15z m50 0 c0 -8
-4 -15 -10 -15 -5 0 -10 7 -10 15 0 8 5 15 10 15 6 0 10 -7 10 -15z m4780 8
c0 -5 -67 -8 -150 -8 -82 0 -150 3 -150 8 0 4 68 7 150 7 83 0 150 -3 150 -7z
m-8900 -18 c0 -13 -67 -15 -540 -15 -473 0 -540 2 -540 15 0 13 67 15 540 15
473 0 540 -2 540 -15z m11780 -25 l0 -30 -475 0 -475 0 0 30 0 30 475 0 475 0
0 -30z m-2880 -15 c0 -13 -23 -15 -150 -15 -127 0 -150 2 -150 15 0 13 23 15
150 15 127 0 150 -2 150 -15z m-1817 -4 l198 -1 -3 -22 -3 -23 -237 -3 -238
-2 0 24 c0 28 12 34 55 30 17 -1 119 -3 228 -3z m-7063 -37 c0 -23 -6 -26 -55
-26 -8 0 -251 0 -540 1 l-525 1 0 25 0 25 538 2 c295 2 547 1 560 -1 16 -2 22
-10 22 -27z m3680 -9 c0 -45 0 -45 -35 -45 -35 0 -35 0 -35 45 0 45 0 45 35
45 35 0 35 0 35 -45z m260 0 l0 -45 -105 0 c-58 0 -108 -1 -112 -2 -5 -2 -9
18 -11 45 l-3 47 115 0 116 0 0 -45z m100 1 c0 -41 -2 -44 -30 -48 -30 -5 -30
-4 -30 44 0 47 1 48 30 48 29 0 30 -2 30 -44z m5524 -2 c-22 -13 -43 -24 -47
-24 -10 0 -67 42 -67 49 0 3 34 4 76 3 l77 -4 -39 -24z m290 5 c-27 -30 -50
-32 -88 -7 -20 13 -36 25 -36 28 0 3 32 3 71 2 68 -4 70 -4 53 -23z m-385 -43
c10 -12 4 -20 -40 -50 -29 -19 -55 -34 -57 -31 -3 2 3 33 13 69 l18 65 27 -19
c15 -10 32 -26 39 -34z m310 -16 c0 -3 -22 -22 -49 -43 l-50 -38 0 75 0 76 50
-32 c27 -18 50 -35 49 -38z m-899 50 c0 -6 -61 -10 -150 -10 -82 0 -150 4
-150 9 0 5 68 9 150 9 89 1 150 -3 150 -8z m770 -55 c0 -36 -4 -65 -8 -65 -12
0 -92 63 -92 72 0 7 80 58 93 58 4 0 7 -29 7 -65z m293 3 c9 -34 15 -64 13
-65 -2 -2 -29 13 -60 34 l-58 37 34 28 c18 15 38 28 44 28 6 0 19 -28 27 -62z
m1585 45 c-130 -2 -346 -2 -480 0 -134 1 -27 2 237 2 264 0 373 -1 243 -2z
m-4268 -48 l0 -25 -240 0 -240 0 0 25 0 25 240 0 240 0 0 -25z m1620 -5 c0
-19 -7 -20 -150 -20 -143 0 -150 1 -150 20 0 19 7 20 150 20 143 0 150 -1 150
-20z m2140 -50 l0 -70 -105 0 -105 0 0 70 0 70 105 0 105 0 0 -70z m498 -2 l3
-68 -236 0 -235 0 0 70 0 70 233 -2 232 -3 3 -67z m242 2 l0 -70 -105 0 -105
0 0 70 0 70 105 0 105 0 0 -70z m-12540 30 l0 -30 -124 0 c-68 0 -131 3 -140
6 -9 3 -16 17 -16 30 l0 24 140 0 140 0 0 -30z m400 0 l0 -30 -180 0 -180 0 0
30 0 30 180 0 180 0 0 -30z m318 3 l-3 -28 -140 0 -140 0 -3 28 -3 27 146 0
146 0 -3 -27z m600 -20 c-2 -31 -7 -39 -25 -41 -21 -3 -23 1 -23 37 0 37 2 41
26 41 23 0 25 -3 22 -37z m82 -3 c0 -36 -2 -40 -25 -40 -22 0 -25 4 -25 40 0
36 3 40 25 40 23 0 25 -4 25 -40z m88 3 c-3 -33 -6 -38 -28 -38 -21 0 -24 5
-26 38 -2 35 -1 37 27 37 29 0 30 -2 27 -37z m82 -3 c0 -36 -2 -40 -25 -40
-22 0 -25 4 -25 40 0 36 3 40 25 40 23 0 25 -4 25 -40z m88 3 c-2 -31 -7 -39
-25 -41 -21 -3 -23 1 -23 37 0 37 2 41 26 41 23 0 25 -3 22 -37z m82 -4 c0
-36 -2 -40 -22 -37 -19 2 -24 10 -26 41 -3 34 -1 37 22 37 24 0 26 -4 26 -41z
m90 1 c0 -36 -2 -40 -25 -40 -22 0 -25 4 -25 40 0 36 3 40 25 40 23 0 25 -4
25 -40z m85 0 c0 -31 -3 -35 -25 -35 -22 0 -25 5 -28 38 -3 37 -2 38 25 35 25
-3 28 -7 28 -38z m85 0 c0 -36 -2 -40 -25 -40 -22 0 -25 4 -25 40 0 36 3 40
25 40 23 0 25 -4 25 -40z m88 3 c-3 -33 -6 -38 -28 -38 -22 0 -25 5 -28 38 -3
35 -2 37 28 37 30 0 31 -2 28 -37z m80 0 c-2 -31 -7 -39 -25 -41 -21 -3 -23 1
-23 37 0 37 2 41 26 41 23 0 25 -3 22 -37z m8177 -10 l48 -38 -51 -3 c-28 -2
-77 -2 -109 0 l-58 3 55 37 c30 20 58 37 61 38 3 0 27 -17 54 -37z m306 1 c30
-20 56 -38 58 -40 2 -2 -45 -4 -105 -4 l-109 1 45 39 c25 22 48 40 51 40 4 0
31 -16 60 -36z m-5833 14 c-4 -10 -55 -13 -213 -13 -158 0 -209 3 -212 13 -4
9 43 12 212 12 169 0 216 -3 213 -12z m6563 -25 c0 -16 1 -47 2 -71 l2 -42
-57 0 -58 0 0 70 0 70 55 0 c53 0 55 -1 56 -27z m-3341 -18 l0 -25 -240 0
-240 0 0 25 0 25 240 0 240 0 0 -25z m1548 18 c-43 -2 -113 -2 -155 0 -43 1
-8 3 77 3 85 0 120 -2 78 -3z m-9588 -88 c0 -36 -4 -65 -8 -65 -13 0 -72 -96
-72 -117 0 -10 7 -29 16 -41 l15 -22 -115 0 -116 0 0 155 0 155 140 0 140 0 0
-65z m400 -195 l0 -260 -92 -2 c-159 -3 -156 -4 -168 62 -7 39 -6 42 19 52 14
6 39 10 54 9 65 -3 97 44 97 147 0 50 -4 73 -15 82 -8 7 -15 18 -15 25 0 27
-41 65 -71 65 -17 0 -39 5 -50 10 -13 7 -36 8 -69 2 l-50 -9 0 38 0 39 180 0
180 0 0 -260z m320 105 l0 -155 -145 0 -145 0 0 155 0 155 145 0 145 0 0 -155z
m4191 128 c32 -16 58 -31 58 -35 1 -4 -20 -8 -46 -8 -27 1 -167 -2 -312 -6
-249 -6 -372 -1 -371 14 1 4 24 19 53 33 52 26 54 26 306 28 l254 1 58 -27z
m4749 -4 c0 -18 -9 -19 -150 -19 -141 0 -150 1 -150 19 0 18 9 19 150 19 141
0 150 -1 150 -19z m-8170 -183 l0 -184 -35 -4 c-20 -2 -49 2 -65 9 l-30 12 0
176 0 175 65 0 65 0 0 -184z m420 -1 l0 -185 -35 0 -35 0 0 135 0 135 -120 0
-120 0 0 -135 0 -135 -40 0 -40 0 0 185 0 185 195 0 195 0 0 -185z m160 92 c0
-84 -3 -97 -25 -127 -31 -42 -31 -50 -1 -105 28 -50 25 -53 -51 -46 l-43 3 0
184 0 184 60 0 60 0 0 -93z m6470 67 c0 -13 -7 -15 -31 -10 -17 3 -38 6 -45 6
-8 0 -14 5 -14 10 0 6 20 10 45 10 35 0 45 -4 45 -16z m180 -19 c0 -35 0 -35
-45 -35 -45 0 -45 0 -45 35 0 35 0 35 45 35 45 0 45 0 45 -35z m1640 30 c0 -2
-22 -16 -48 -29 l-48 -24 -37 22 c-20 13 -40 26 -44 29 -3 4 35 7 85 7 51 0
92 -2 92 -5z m340 -2 c0 -5 -17 -17 -39 -29 l-38 -21 -54 28 -54 28 93 1 c50
0 92 -3 92 -7z m-2662 -30 l3 -23 -240 0 -241 0 0 25 0 25 238 -2 237 -3 3
-22z m2170 -28 c11 -10 1 -19 -53 -50 -37 -20 -68 -35 -70 -33 -3 2 5 34 17
71 l22 66 35 -21 c20 -12 42 -27 49 -33z m221 -20 c-1 -36 -6 -65 -11 -65 -5
0 -34 16 -66 36 l-56 36 54 29 c79 41 81 40 79 -36z m98 38 c29 -16 53 -30 53
-33 0 -3 -27 -22 -60 -43 l-60 -37 0 70 c0 38 3 70 7 70 4 0 31 -12 60 -27z
m260 -38 c12 -36 19 -65 17 -65 -14 0 -145 72 -140 77 13 13 82 52 91 53 6 0
20 -29 32 -65z m1753 20 l0 -35 -475 0 -475 0 0 35 0 35 475 0 475 0 0 -35z
m-2880 18 c0 -5 -68 -8 -150 -8 -83 0 -150 3 -150 8 0 4 68 7 150 7 83 0 150
-3 150 -7z m-5950 -43 c0 -23 -4 -27 -19 -23 -25 6 -55 39 -47 51 3 5 19 7 36
4 25 -4 30 -9 30 -32z m-3557 16 c8 -9 24 -12 36 -9 25 6 51 -12 51 -37 0 -10
7 -23 14 -30 21 -17 15 -135 -8 -158 -14 -14 -20 -15 -37 -4 -18 11 -24 11
-38 -2 -20 -18 -47 -21 -56 -5 -4 6 -14 8 -22 5 -9 -4 -21 -2 -27 3 -6 5 -22
11 -36 13 -18 2 -26 10 -28 27 -2 13 -13 32 -24 41 -17 14 -19 20 -9 38 6 12
16 22 21 22 6 0 10 7 10 15 0 22 66 88 79 80 6 -3 19 -1 28 4 24 14 29 13 46
-3z m3406 -1 c14 8 41 -5 41 -21 0 -7 9 -18 20 -24 11 -6 20 -18 20 -26 0 -9
10 -24 22 -33 21 -18 21 -24 -4 -66 -6 -11 -14 -27 -18 -35 -4 -8 -18 -17 -31
-18 -13 -2 -29 -8 -35 -13 -6 -5 -18 -7 -27 -3 -8 3 -18 1 -22 -5 -9 -16 -36
-13 -57 5 -13 13 -21 14 -32 5 -7 -6 -20 -9 -28 -6 -22 9 -41 54 -29 69 6 7 6
17 1 26 -14 21 -12 58 3 67 7 4 17 22 22 38 9 24 16 30 40 30 17 0 39 5 50 12
13 7 25 8 37 2 10 -6 22 -7 27 -4z m1360 3 c6 -7 26 -13 44 -13 26 0 33 -5 42
-30 5 -16 15 -34 22 -38 15 -9 17 -46 3 -67 -5 -9 -5 -19 1 -26 13 -15 -4 -59
-27 -68 -9 -3 -23 -1 -30 5 -11 9 -19 8 -32 -5 -21 -18 -48 -21 -57 -5 -4 6
-14 8 -22 5 -9 -4 -21 -2 -27 3 -6 5 -22 11 -36 13 -18 2 -26 10 -28 28 -2 13
-13 30 -23 38 -25 17 -24 39 1 54 11 7 20 19 20 26 0 7 15 29 34 48 25 26 40
34 55 29 10 -3 22 -1 26 5 8 13 18 13 34 -2z m3606 -2 c18 7 85 -58 85 -83 0
-7 4 -13 10 -13 5 0 15 -10 21 -22 10 -18 8 -24 -10 -39 -11 -9 -21 -26 -21
-37 0 -20 -25 -37 -40 -27 -4 3 -13 -1 -19 -9 -7 -8 -20 -12 -30 -9 -10 3 -22
0 -25 -6 -10 -16 -37 -14 -57 5 -14 13 -20 13 -39 2 -19 -11 -23 -10 -39 9
-23 28 -27 136 -5 153 8 7 14 23 14 36 0 17 7 25 24 30 14 3 30 3 36 -1 5 -3
17 1 26 9 11 12 20 13 34 6 10 -5 26 -7 35 -4z m5024 -1 c14 8 41 -5 41 -21 0
-7 9 -18 20 -24 11 -6 20 -18 20 -26 0 -9 10 -24 23 -34 19 -16 20 -21 9 -37
-6 -10 -15 -25 -18 -33 -13 -35 -21 -43 -58 -55 -22 -8 -42 -13 -45 -13 -3 1
-19 -2 -34 -7 -21 -5 -33 -3 -47 10 -15 14 -23 15 -34 6 -7 -6 -20 -9 -28 -6
-22 9 -38 48 -27 67 5 9 3 28 -4 47 -10 28 -10 34 4 44 9 7 20 26 26 42 8 24
16 30 39 30 16 0 38 5 49 12 13 7 25 8 37 2 10 -6 22 -7 27 -4z m-9199 -20 c0
-8 -4 -15 -10 -15 -5 0 -10 7 -10 15 0 8 5 15 10 15 6 0 10 -7 10 -15z m50 0
c0 -8 -4 -15 -10 -15 -5 0 -10 7 -10 15 0 8 5 15 10 15 6 0 10 -7 10 -15z m47
-7 c-3 -8 -6 -5 -6 6 -1 11 2 17 5 13 3 -3 4 -12 1 -19z m63 7 c0 -8 -4 -15
-10 -15 -5 0 -10 7 -10 15 0 8 5 15 10 15 6 0 10 -7 10 -15z m50 0 c0 -8 -4
-15 -10 -15 -5 0 -10 7 -10 15 0 8 5 15 10 15 6 0 10 -7 10 -15z m60 6 c0 -6
-4 -13 -10 -16 -5 -3 -10 1 -10 9 0 9 5 16 10 16 6 0 10 -4 10 -9z m50 -6 c0
-8 -4 -15 -10 -15 -5 0 -10 7 -10 15 0 8 5 15 10 15 6 0 10 -7 10 -15z m50 0
c0 -8 -4 -15 -10 -15 -5 0 -10 7 -10 15 0 8 5 15 10 15 6 0 10 -7 10 -15z
m3318 -22 l3 -23 -240 0 -241 0 0 25 0 25 238 -2 237 -3 3 -22z m1622 12 c0
-13 -23 -15 -150 -15 -127 0 -150 2 -150 15 0 13 23 15 150 15 127 0 150 -2
150 -15z m656 -26 c30 -17 54 -32 54 -35 0 -2 -55 -4 -122 -4 l-123 1 60 33
c33 19 64 34 69 35 5 0 33 -13 62 -30z m384 -4 l65 -34 -130 -1 -129 0 54 35
c30 19 60 34 65 34 6 0 39 -15 75 -34z m-8890 -110 l0 -115 -90 0 -90 0 0 115
0 115 90 0 90 0 0 -115z m10730 105 c0 -7 -165 -10 -475 -10 -310 0 -475 3
-475 10 0 7 165 10 475 10 310 0 475 -3 475 -10z m-8080 -56 c0 -44 0 -44 -35
-44 -35 0 -35 0 -35 44 0 41 2 45 28 48 39 5 42 2 42 -48z m244 36 c-4 -8 -9
-30 -12 -47 l-4 -33 -99 0 -99 0 0 44 c0 52 -2 51 138 51 69 0 81 -2 76 -15z
m-2490 1 c3 -4 16 -6 29 -4 18 4 26 -2 39 -34 17 -38 19 -117 4 -142 -5 -7
-17 -10 -29 -7 -12 3 -26 1 -33 -5 -14 -11 -81 -2 -90 12 -3 5 -14 9 -24 9
-11 0 -25 13 -34 32 -20 39 -20 57 -1 64 8 4 15 13 15 20 0 8 7 17 15 20 8 4
15 12 15 19 0 16 9 19 55 22 18 2 36 -1 39 -6z m7446 -1 c0 -6 -57 -10 -150
-10 -93 0 -150 4 -150 10 0 6 57 10 150 10 93 0 150 -4 150 -10z m1368 -27
c12 -13 22 -27 22 -31 0 -4 9 -15 20 -25 19 -16 18 -47 -1 -47 -5 0 -9 -9 -9
-20 0 -15 -13 -23 -57 -36 -40 -12 -61 -14 -73 -6 -9 5 -28 8 -42 5 -14 -3
-28 0 -32 5 -11 18 -15 112 -5 118 6 3 14 17 19 30 6 16 18 24 32 24 13 0 29
4 36 9 21 13 65 0 90 -26z m-2308 -7 c0 -19 -5 -38 -11 -41 -14 -9 -15 -7 -22
38 -5 32 -3 37 14 37 15 0 19 -7 19 -34z m-687 15 c4 0 7 -10 7 -21 0 -11 -3
-20 -7 -20 -5 -1 -113 -2 -241 -3 l-232 -2 0 25 0 26 233 -2 c127 -1 235 -2
240 -3z m-1633 -26 c0 -21 -5 -25 -30 -25 -25 0 -30 4 -30 25 0 21 5 25 30 25
25 0 30 -4 30 -25z m180 0 c0 -20 -5 -25 -24 -25 -17 0 -25 7 -28 25 -5 22 -2
25 23 25 24 0 29 -4 29 -25z m5220 -45 l0 -70 -105 0 -105 0 0 70 0 70 105 0
105 0 0 -70z m498 3 l-3 -68 -230 0 -230 0 -3 68 -3 67 236 0 236 0 -3 -67z
m242 -3 l0 -70 -105 0 -105 0 0 70 0 70 105 0 105 0 0 -70z m-6420 35 c0 -22
-4 -25 -38 -25 -45 0 -52 4 -45 31 4 15 14 19 44 19 35 0 39 -3 39 -25z m3540
-4 c0 -18 -9 -19 -150 -19 -141 0 -150 1 -150 19 0 18 9 19 150 19 141 0 150
-1 150 -19z m530 9 c0 -3 -20 -26 -45 -50 l-44 -43 -11 27 c-27 72 -27 71 39
72 34 0 61 -3 61 -6z m237 -6 c3 -8 4 -17 1 -19 -5 -6 -181 -26 -185 -21 -2 2
1 15 6 29 9 24 13 25 91 25 62 0 83 -3 87 -14z m212 -15 l11 -31 -38 6 c-20 3
-63 8 -94 11 -48 5 -58 10 -58 26 0 17 8 19 84 19 l84 0 11 -31z m170 26 c10
-6 -16 -95 -27 -95 -8 0 -92 82 -92 90 0 8 107 13 119 5z m572 -35 c0 -22 1
-55 2 -72 l1 -33 -57 -3 -57 -3 0 76 0 75 55 0 55 0 1 -40z m-1311 -80 c0 -9
-18 -34 -40 -55 -46 -45 -48 -41 -20 41 32 94 31 92 46 59 7 -16 13 -37 14
-45z m-2032 38 l-3 -23 -237 -3 -238 -2 0 25 0 25 241 0 240 0 -3 -22z m2135
-64 l-27 -79 -12 30 c-7 17 -13 37 -14 45 0 13 70 93 77 87 1 -2 -9 -39 -24
-83z m561 47 c37 -38 37 -39 25 -80 -7 -23 -15 -39 -18 -35 -10 10 -58 154
-52 154 4 0 24 -17 45 -39z m-4614 4 c0 -22 -4 -25 -40 -25 -36 0 -40 3 -40
25 0 23 4 25 40 25 36 0 40 -2 40 -25z m280 0 c0 -21 -5 -25 -30 -25 -25 0
-30 4 -30 25 0 21 5 25 30 25 25 0 30 -4 30 -25z m180 0 c0 -20 -5 -25 -24
-25 -17 0 -25 7 -28 25 -5 22 -2 25 23 25 24 0 29 -4 29 -25z m3008 18 c-43
-2 -113 -2 -155 0 -43 1 -8 3 77 3 85 0 120 -2 78 -3z m-4858 -13 c0 -6 -63
-10 -170 -10 -107 0 -170 4 -170 10 0 6 63 10 170 10 107 0 170 -4 170 -10z
m5917 -8 c14 -8 30 -38 48 -93 15 -44 25 -82 23 -84 -3 -3 -491 -8 -545 -6 -8
1 -3 26 14 79 30 91 36 99 77 112 45 13 356 8 383 -8z m-10682 -12 c4 -6 -38
-10 -119 -10 -77 0 -126 4 -126 10 0 6 46 10 119 10 69 0 122 -4 126 -10z
m755 0 c0 -6 -53 -10 -140 -10 -87 0 -140 4 -140 10 0 6 53 10 140 10 87 0
140 -4 140 -10z m8940 -20 c0 -19 -7 -20 -150 -20 -143 0 -150 1 -150 20 0 19
7 20 150 20 143 0 150 -1 150 -20z m-940 -30 l0 -40 -45 0 -45 0 0 40 0 40 45
0 45 0 0 -40z m-5010 -10 c0 -28 -3 -30 -35 -30 -30 0 -35 3 -35 23 0 31 7 37
42 37 24 0 28 -4 28 -30z m1114 20 c14 -5 26 -16 26 -25 0 -13 -34 -15 -260
-15 l-260 0 0 25 0 25 234 0 c129 0 246 -4 260 -10z m3214 -12 l-3 -23 -237
-3 -238 -2 0 25 0 25 241 0 240 0 -3 -22z m-8298 -43 c0 -30 -4 -55 -10 -55
-5 0 -10 25 -10 55 0 30 5 55 10 55 6 0 10 -25 10 -55z m50 0 c0 -30 -4 -55
-8 -55 -10 0 -15 87 -7 101 12 18 15 8 15 -46z m58 -6 c-3 -67 -18 -62 -18 7
0 34 4 53 10 49 5 -3 9 -28 8 -56z m52 6 c0 -30 -4 -55 -10 -55 -5 0 -10 25
-10 55 0 30 5 55 10 55 6 0 10 -25 10 -55z m50 0 c0 -30 -4 -55 -10 -55 -5 0
-10 25 -10 55 0 30 5 55 10 55 6 0 10 -25 10 -55z m50 0 c0 -30 -4 -55 -10
-55 -5 0 -10 25 -10 55 0 30 5 55 10 55 6 0 10 -25 10 -55z m73 10 c-6 -102
-30 -116 -35 -20 -3 61 -2 66 17 63 17 -3 20 -10 18 -43z m387 -10 c0 -42 -3
-55 -15 -55 -12 0 -15 13 -15 55 0 42 3 55 15 55 12 0 15 -13 15 -55z m50 0
c0 -30 -4 -55 -10 -55 -5 0 -10 25 -10 55 0 30 5 55 10 55 6 0 10 -25 10 -55z
m50 0 c0 -30 -4 -55 -10 -55 -5 0 -10 25 -10 55 0 30 5 55 10 55 6 0 10 -25
10 -55z m50 0 c0 -30 -4 -55 -10 -55 -5 0 -10 25 -10 55 0 30 5 55 10 55 6 0
10 -25 10 -55z m50 0 c0 -30 -4 -55 -10 -55 -5 0 -10 25 -10 55 0 30 5 55 10
55 6 0 10 -25 10 -55z m60 0 c0 -42 -3 -55 -15 -55 -11 0 -15 12 -15 48 0 27
3 52 7 55 16 17 23 3 23 -48z m2756 -35 c13 0 24 -4 24 -10 0 -5 -18 -10 -40
-10 -37 0 -40 2 -41 28 -2 44 2 67 15 74 7 5 12 -7 14 -37 3 -40 6 -45 28 -45z
m2644 81 c0 -28 -15 -41 -44 -41 -39 0 -45 5 -39 31 4 15 14 19 44 19 22 0 39
-4 39 -9z m460 -21 c0 -25 -4 -30 -23 -30 -31 0 -35 5 -29 35 3 18 11 25 28
25 20 0 24 -5 24 -30z m1866 -50 c46 0 20 -25 -29 -28 l-47 -3 0 50 c0 44 3
50 23 53 19 3 22 -2 25 -34 3 -33 6 -38 28 -38z m4094 45 l0 -35 -475 0 -475
0 0 35 0 35 475 0 475 0 0 -35z m-11176 9 c9 -3 16 -10 16 -15 0 -4 -7 -6 -15
-3 -8 3 -24 -5 -37 -19 -21 -22 -29 -24 -83 -20 -33 2 -64 8 -69 13 -4 5 9 17
30 29 38 20 124 28 158 15z m767 -5 c16 -8 19 -17 14 -47 -10 -56 -13 -62 -30
-56 -12 5 -15 19 -14 60 2 59 2 59 30 43z m1379 -4 c0 -8 -4 -15 -9 -15 -13 0
-22 16 -14 24 11 11 23 6 23 -9z m2864 -2 c48 -24 46 -43 -4 -45 -22 -1 -53
-2 -70 -3 -21 -1 -31 3 -35 17 -6 16 -23 23 -47 19 -13 -2 -9 17 5 22 29 12
118 6 151 -10z m2096 2 c0 -8 -4 -15 -10 -15 -5 0 -10 7 -10 15 0 8 5 15 10
15 6 0 10 -7 10 -15z m1649 -67 c1 -5 -29 -8 -66 -8 l-68 1 50 45 50 45 17
-38 c9 -21 17 -41 17 -45z m771 -5 c0 -2 -27 -3 -60 -3 -35 0 -60 4 -60 10 0
6 7 27 15 47 l16 37 44 -44 c25 -24 45 -45 45 -47z m3711 67 c22 -12 37 -25
35 -29 -3 -5 -33 -12 -67 -15 -59 -7 -64 -6 -87 19 -13 14 -30 24 -38 21 -8
-3 -14 -1 -14 3 0 28 118 28 171 1z m-4941 1 c0 -6 -64 -10 -150 -10 -88 0
-150 4 -150 9 0 6 62 10 150 10 86 0 150 -4 150 -9z m-7590 -41 l0 -30 -307 1
c-170 0 -302 3 -295 6 6 2 12 15 12 28 0 23 3 24 78 27 42 2 175 2 295 0 l217
-3 0 -29z m8830 30 c0 -5 -2 -10 -4 -10 -3 0 -8 5 -11 10 -3 6 -1 10 4 10 6 0
11 -4 11 -10z m-9470 -15 c0 -8 -4 -15 -9 -15 -5 0 -11 7 -15 15 -3 9 0 15 9
15 8 0 15 -7 15 -15z m4760 11 c0 -2 -7 -9 -15 -16 -12 -10 -15 -10 -15 4 0 9
7 16 15 16 8 0 15 -2 15 -4z m4760 -11 c0 -8 -2 -15 -4 -15 -2 0 -6 7 -10 15
-3 8 -1 15 4 15 6 0 10 -7 10 -15z m2350 -15 l0 -30 -70 0 -70 0 0 30 0 30 70
0 70 0 0 -30z m970 0 l0 -30 -75 0 c-72 0 -75 1 -75 23 0 34 6 37 82 37 l68 0
0 -30z m134 15 c-4 -8 -10 -15 -15 -15 -5 0 -9 7 -9 15 0 8 7 15 15 15 9 0 12
-6 9 -15z m-6364 -25 c0 -19 -7 -20 -240 -20 -233 0 -240 1 -240 20 0 19 7 20
240 20 233 0 240 -1 240 -20z m-3202 -2 c-4 -10 -71 -14 -281 -16 -242 -2
-277 0 -277 13 0 13 37 15 281 15 220 0 280 -3 277 -12z m92 -3 c0 -8 -4 -15
-10 -15 -5 0 -10 7 -10 15 0 8 5 15 10 15 6 0 10 -7 10 -15z m1300 5 c0 -5 -4
-10 -10 -10 -5 0 -10 5 -10 10 0 6 5 10 10 10 6 0 10 -4 10 -10z m230 0 c0 -5
-5 -10 -11 -10 -5 0 -7 5 -4 10 3 6 8 10 11 10 2 0 4 -4 4 -10z m3200 -5 c0
-13 -23 -15 -150 -15 -127 0 -150 2 -150 15 0 13 23 15 150 15 127 0 150 -2
150 -15z m2648 -12 c-130 -2 -346 -2 -480 0 -134 1 -27 2 237 2 264 0 373 -1
243 -2z m-10982 -20 c-10 -10 -166 -10 -166 0 0 4 39 7 87 7 47 0 83 -3 79 -7z
m13321 1 c-7 -7 -169 -5 -176 2 -2 2 38 4 89 4 51 0 90 -3 87 -6z"/>
<path d="M9470 5682 l0 -68 75 -1 75 -1 0 69 0 69 -75 0 -75 0 0 -68z m120 3
c0 -35 0 -35 -45 -35 -45 0 -45 0 -45 35 0 35 0 35 45 35 45 0 45 0 45 -35z"/>
<path d="M9650 5682 l0 -68 73 1 72 0 3 68 3 67 -76 0 -75 0 0 -68z m120 3 c0
-35 0 -35 -45 -35 -45 0 -45 0 -45 35 0 35 0 35 45 35 45 0 45 0 45 -35z"/>
<path d="M9830 5682 l0 -69 73 1 72 1 3 68 3 67 -76 0 -75 0 0 -68z m120 3 c0
-35 0 -35 -45 -35 -45 0 -45 0 -45 35 0 35 0 35 45 35 45 0 45 0 45 -35z"/>
<path d="M9470 5520 l0 -70 75 0 75 0 0 70 0 70 -75 0 -75 0 0 -70z m118 3
c-3 -37 -4 -38 -45 -41 l-43 -3 0 40 0 41 46 0 45 0 -3 -37z"/>
<path d="M9650 5520 l0 -70 75 0 75 0 0 70 0 70 -75 0 -75 0 0 -70z m118 3
c-3 -37 -4 -38 -43 -38 -39 0 -40 1 -43 38 l-3 37 46 0 46 0 -3 -37z"/>
<path d="M9830 5520 l0 -70 75 0 75 0 0 70 0 70 -75 0 -75 0 0 -70z m115 0 c0
-34 -1 -35 -40 -35 -39 0 -40 1 -43 38 l-3 38 43 -3 c42 -3 43 -4 43 -38z"/>
<path d="M9470 5360 l0 -70 75 0 75 0 0 70 0 70 -75 0 -75 0 0 -70z m115 0 c0
-34 -1 -35 -42 -38 -43 -3 -43 -3 -43 31 0 43 6 49 50 45 33 -3 35 -5 35 -38z"/>
<path d="M9650 5360 l0 -70 75 0 75 0 0 70 0 70 -75 0 -75 0 0 -70z m115 0 c0
-34 -1 -35 -42 -38 l-43 -3 0 41 0 41 43 -3 c41 -3 42 -4 42 -38z"/>
<path d="M9830 5360 l0 -70 75 0 75 0 0 70 0 70 -75 0 -75 0 0 -70z m115 0 c0
-34 -1 -35 -42 -38 l-43 -3 0 41 0 41 43 -3 c41 -3 42 -4 42 -38z"/>
<path d="M9470 5200 l0 -70 75 0 75 0 0 70 0 70 -75 0 -75 0 0 -70z m108 31
c7 0 12 -15 12 -36 0 -35 0 -35 -45 -35 -44 0 -45 0 -45 33 0 19 2 36 5 38 4
4 33 4 73 0z"/>
<path d="M9650 5200 l0 -70 75 0 75 0 0 70 0 70 -75 0 -75 0 0 -70z m118 -2
l3 -38 -45 0 c-45 0 -46 0 -46 33 0 43 6 49 50 45 33 -3 35 -5 38 -40z"/>
<path d="M9830 5200 l0 -70 75 0 76 0 -3 68 -3 67 -72 3 -73 3 0 -71z m108 30
c7 0 12 -14 12 -35 0 -35 0 -35 -45 -35 -45 0 -45 0 -45 34 0 36 12 48 45 41
11 -3 26 -5 33 -5z"/>
<path d="M9488 5103 c-15 -4 -18 -16 -18 -69 l0 -64 75 0 75 0 0 68 0 67 -58
1 c-31 0 -65 -1 -74 -3z m102 -68 c0 -35 0 -35 -45 -35 -45 0 -45 0 -45 35 0
35 0 35 45 35 45 0 45 0 45 -35z"/>
<path d="M9650 5037 l0 -72 75 3 76 4 -3 66 -3 67 -72 2 -73 1 0 -71z m120 -2
c0 -35 0 -35 -45 -35 -45 0 -45 0 -45 35 0 35 0 35 45 35 45 0 45 0 45 -35z"/>
<path d="M9830 5038 c0 -38 4 -68 10 -69 6 0 38 0 73 -1 l62 0 0 68 0 69 -72
1 -73 0 0 -68z m120 -3 c0 -35 0 -35 -45 -35 -45 0 -45 0 -45 35 0 35 0 35 45
35 45 0 45 0 45 -35z"/>
<path d="M9470 4870 l0 -70 75 0 75 0 0 70 0 70 -75 0 -75 0 0 -70z m120 5 c0
-28 -4 -35 -20 -36 -68 -4 -65 -5 -68 34 l-3 37 45 0 c46 0 46 0 46 -35z"/>
<path d="M9650 4870 l0 -70 75 0 75 0 0 70 0 70 -75 0 -75 0 0 -70z m120 5 c0
-35 0 -35 -45 -35 -45 0 -45 0 -45 35 0 35 0 35 45 35 45 0 45 0 45 -35z"/>
<path d="M9830 4870 l0 -71 73 3 72 3 3 68 3 67 -76 0 -75 0 0 -70z m115 1 c0
-34 -1 -35 -40 -35 -39 -1 -40 0 -43 37 l-3 38 43 -3 c42 -3 43 -4 43 -37z"/>
<path d="M9470 4710 l0 -70 75 0 75 0 0 70 0 70 -75 0 -75 0 0 -70z m115 0 c0
-34 -1 -35 -42 -38 l-43 -3 0 41 0 41 43 -3 c41 -3 42 -4 42 -38z"/>
<path d="M9650 4710 l0 -70 75 0 75 0 0 70 0 70 -75 0 -75 0 0 -70z m118 -2
l3 -38 -45 0 -46 0 0 41 0 40 43 -3 c41 -3 42 -4 45 -40z"/>
<path d="M9830 4710 l0 -70 75 0 75 0 0 70 0 70 -75 0 -75 0 0 -70z m115 0 c0
-34 -1 -35 -42 -38 l-43 -3 0 41 0 41 43 -3 c41 -3 42 -4 42 -38z"/>
<path d="M9470 4550 l0 -70 75 0 75 0 0 70 0 70 -75 0 -75 0 0 -70z m120 -5
c0 -35 0 -35 -45 -35 -45 0 -45 0 -45 35 0 35 0 35 45 35 45 0 45 0 45 -35z"/>
<path d="M9650 4550 l0 -70 75 0 75 0 0 70 0 70 -75 0 -75 0 0 -70z m120 -5
c0 -35 0 -35 -45 -35 -45 0 -45 0 -45 35 0 35 0 35 45 35 45 0 45 0 45 -35z"/>
<path d="M9830 4550 l0 -70 75 0 75 0 0 70 0 70 -75 0 -75 0 0 -70z m118 -2
c-3 -31 -6 -33 -45 -36 l-43 -3 0 35 c0 36 0 36 46 36 45 0 45 0 42 -32z"/>
<path d="M9470 4385 l0 -65 75 0 75 0 0 65 0 65 -75 0 -75 0 0 -65z m120 0 c0
-35 0 -35 -45 -35 -45 0 -45 0 -45 35 0 35 0 35 45 35 45 0 45 0 45 -35z"/>
<path d="M9650 4385 l0 -65 75 0 75 0 0 65 0 65 -75 0 -75 0 0 -65z m120 0 c0
-35 0 -35 -45 -35 -45 0 -45 0 -45 35 0 35 0 35 45 35 45 0 45 0 45 -35z"/>
<path d="M9830 4385 l0 -65 75 0 75 0 0 65 0 65 -75 0 -75 0 0 -65z m118 -2
c3 -33 3 -33 -42 -33 -46 0 -46 0 -46 36 l0 35 43 -3 c39 -3 42 -5 45 -35z"/>
<path d="M9470 4220 l0 -70 75 0 75 0 0 70 0 70 -75 0 -75 0 0 -70z m120 5 c0
-35 0 -35 -45 -35 -45 0 -45 0 -45 35 0 35 0 35 45 35 45 0 45 0 45 -35z"/>
<path d="M9650 4220 l0 -70 75 0 75 0 0 70 0 70 -75 0 -75 0 0 -70z m120 5 c0
-35 0 -35 -45 -35 -45 0 -45 0 -45 35 0 35 0 35 45 35 45 0 45 0 45 -35z"/>
<path d="M9830 4220 l0 -71 73 3 72 3 3 68 3 67 -76 0 -75 0 0 -70z m118 3 c3
-33 3 -33 -42 -33 -46 0 -46 0 -46 36 l0 35 43 -3 c39 -3 42 -5 45 -35z"/>
<path d="M9470 4060 l0 -70 75 0 75 0 0 70 0 70 -75 0 -75 0 0 -70z m115 0 c0
-34 -1 -35 -42 -38 l-43 -3 0 41 0 41 43 -3 c41 -3 42 -4 42 -38z"/>
<path d="M9650 4060 l0 -70 75 0 75 0 0 70 0 70 -75 0 -75 0 0 -70z m115 0 c0
-34 -1 -35 -42 -38 l-43 -3 0 41 0 41 43 -3 c41 -3 42 -4 42 -38z"/>
<path d="M9830 4060 l0 -70 75 0 75 0 0 70 0 70 -75 0 -75 0 0 -70z m115 0 c0
-34 -1 -35 -42 -38 l-43 -3 0 41 0 41 43 -3 c41 -3 42 -4 42 -38z"/>
<path d="M9470 3900 l0 -70 75 0 75 0 0 70 0 70 -75 0 -75 0 0 -70z m120 -5
c0 -35 0 -35 -45 -35 -45 0 -45 0 -45 35 0 35 0 35 45 35 45 0 45 0 45 -35z"/>
<path d="M9650 3900 l0 -70 75 0 75 0 0 70 0 70 -75 0 -75 0 0 -70z m120 -5
c0 -35 0 -35 -45 -35 -45 0 -45 0 -45 35 0 35 0 35 45 35 45 0 45 0 45 -35z"/>
<path d="M9830 3900 l0 -70 75 0 75 0 0 70 0 70 -75 0 -75 0 0 -70z m120 -5
c0 -35 0 -35 -45 -35 -45 0 -45 0 -45 35 0 35 0 35 45 35 45 0 45 0 45 -35z"/>
<path d="M9830 3730 l0 -71 73 3 72 3 3 68 3 67 -76 0 -75 0 0 -70z m120 5 c0
-35 0 -35 -45 -35 -45 0 -45 0 -45 35 0 35 0 35 45 35 45 0 45 0 45 -35z"/>
<path d="M9830 3570 l0 -70 75 0 75 0 0 70 0 70 -75 0 -75 0 0 -70z m115 0 c0
-34 -1 -35 -42 -38 l-43 -3 0 41 0 41 43 -3 c41 -3 42 -4 42 -38z"/>
<path d="M9830 3410 l0 -70 75 0 75 0 0 70 0 70 -75 0 -75 0 0 -70z m115 0 c0
-34 -1 -35 -42 -38 l-43 -3 0 41 0 41 43 -3 c41 -3 42 -4 42 -38z"/>
<path d="M4500 5415 l0 -65 70 0 70 0 0 65 0 65 -70 0 -70 0 0 -65z m108 -2
c-2 -23 -8 -29 -35 -31 -31 -3 -33 -1 -33 27 0 29 3 31 36 31 33 0 35 -2 32
-27z"/>
<path d="M4660 5415 l0 -65 70 0 70 0 0 65 0 65 -70 0 -70 0 0 -65z m100 -6
c0 -28 -2 -30 -32 -27 -28 2 -34 8 -36 31 -3 25 -1 27 32 27 33 0 36 -2 36
-31z"/>
<path d="M4820 5415 l0 -65 70 0 70 0 0 65 0 65 -70 0 -70 0 0 -65z m100 -6
c0 -28 -2 -30 -32 -27 -28 2 -34 8 -36 31 -3 25 -1 27 32 27 33 0 36 -2 36
-31z"/>
<path d="M4502 5268 l3 -63 68 -3 67 -3 0 65 0 66 -70 0 -71 0 3 -62z m106 0
c3 -26 1 -28 -32 -28 -33 0 -36 2 -36 31 0 28 2 30 33 27 27 -2 33 -8 35 -30z"/>
<path d="M4660 5266 l0 -64 70 0 70 0 0 64 0 64 -70 0 -70 0 0 -64z m100 4 c0
-28 -3 -30 -35 -30 -30 0 -35 3 -35 23 0 31 7 37 42 37 24 0 28 -4 28 -30z"/>
<path d="M4820 5266 l0 -64 68 1 67 2 3 63 3 62 -71 0 -70 0 0 -64z m100 4 c0
-28 -3 -30 -35 -30 -32 0 -35 2 -35 30 0 28 3 30 35 30 32 0 35 -2 35 -30z"/>
<path d="M4500 5125 l0 -65 70 0 70 0 0 65 0 65 -70 0 -70 0 0 -65z m108 -4
c-2 -21 -9 -27 -35 -29 -31 -3 -33 -2 -33 30 0 33 1 34 36 30 31 -4 35 -7 32
-31z"/>
<path d="M4660 5125 l0 -65 70 0 70 0 0 65 0 65 -70 0 -70 0 0 -65z m100 -3
c0 -31 -2 -33 -32 -30 -22 2 -34 9 -36 21 -6 31 4 42 37 42 28 0 31 -3 31 -33z"/>
<path d="M4820 5125 l0 -65 70 0 70 0 0 65 0 65 -70 0 -70 0 0 -65z m100 -7
c0 -27 -2 -29 -32 -26 -22 2 -34 9 -36 21 -6 33 4 44 37 39 27 -4 31 -8 31
-34z"/>
<path d="M4820 4983 l0 -63 70 0 70 0 0 59 0 59 -70 4 -70 3 0 -62z m100 -3
c0 -28 -3 -30 -35 -30 -32 0 -35 2 -35 30 0 28 3 30 35 30 32 0 35 -2 35 -30z"/>
<path d="M4500 4980 l0 -60 70 0 70 0 0 60 0 60 -70 0 -70 0 0 -60z m108 3
c-2 -23 -8 -29 -35 -31 -31 -3 -33 -1 -33 27 0 29 3 31 36 31 33 0 35 -2 32
-27z"/>
<path d="M4660 4980 l0 -60 70 0 70 0 0 60 0 60 -70 0 -70 0 0 -60z m100 -1
c0 -28 -2 -30 -32 -27 -28 2 -34 8 -36 31 -3 25 -1 27 32 27 33 0 36 -2 36
-31z"/>
<path d="M4500 4835 l0 -65 70 0 70 0 0 65 0 65 -70 0 -70 0 0 -65z m108 3 c3
-26 1 -28 -32 -28 -33 0 -36 2 -36 31 0 28 2 30 33 27 27 -2 33 -8 35 -30z"/>
<path d="M4660 4835 l0 -65 70 0 70 0 0 65 0 65 -70 0 -70 0 0 -65z m100 5 c0
-28 -3 -30 -35 -30 -30 0 -35 3 -35 23 0 31 7 37 42 37 24 0 28 -4 28 -30z"/>
<path d="M4820 4835 l0 -65 70 0 70 0 0 65 0 65 -70 0 -70 0 0 -65z m100 5 c0
-28 -3 -30 -35 -30 -30 0 -35 3 -35 23 0 31 7 37 42 37 24 0 28 -4 28 -30z"/>
<path d="M4500 4695 l0 -65 70 0 70 0 0 65 0 65 -70 0 -70 0 0 -65z m108 -2
c-2 -23 -8 -29 -35 -31 -31 -3 -33 -1 -33 27 0 29 3 31 36 31 33 0 35 -2 32
-27z"/>
<path d="M4660 4695 l0 -65 70 0 70 0 0 65 0 65 -70 0 -70 0 0 -65z m100 -6
c0 -28 -2 -30 -32 -27 -28 2 -34 8 -36 31 -3 25 -1 27 32 27 33 0 36 -2 36
-31z"/>
<path d="M4820 4695 l0 -65 70 0 70 0 0 65 0 65 -70 0 -70 0 0 -65z m100 -5
c0 -28 -3 -30 -35 -30 -32 0 -35 2 -35 30 0 28 3 30 35 30 32 0 35 -2 35 -30z"/>
<path d="M4502 4548 l3 -63 65 1 65 1 3 61 3 62 -71 0 -71 0 3 -62z m106 0 c3
-26 1 -28 -32 -28 -33 0 -36 2 -36 31 0 28 2 30 33 27 27 -2 33 -8 35 -30z"/>
<path d="M4660 4548 l0 -63 57 2 c32 1 64 2 71 2 8 1 12 20 12 61 l0 60 -70 0
-70 0 0 -62z m100 2 c0 -28 -3 -30 -35 -30 -30 0 -35 3 -35 23 0 31 7 37 42
37 24 0 28 -4 28 -30z"/>
<path d="M4822 4548 l3 -62 65 0 65 1 3 61 3 62 -71 0 -71 0 3 -62z m98 2 c0
-28 -3 -30 -35 -30 -32 0 -35 2 -35 30 0 28 3 30 35 30 32 0 35 -2 35 -30z"/>
<path d="M4500 4405 l0 -65 70 0 70 0 0 65 0 65 -70 0 -70 0 0 -65z m108 3 c3
-26 1 -28 -32 -28 -33 0 -36 2 -36 31 0 28 2 30 33 27 27 -2 33 -8 35 -30z"/>
<path d="M4660 4405 l0 -65 70 0 70 0 0 65 0 65 -70 0 -70 0 0 -65z m100 5 c0
-28 -3 -30 -35 -30 -30 0 -35 3 -35 23 0 31 7 37 42 37 24 0 28 -4 28 -30z"/>
<path d="M4820 4405 l0 -65 70 0 70 0 0 65 0 65 -70 0 -70 0 0 -65z m100 3 c0
-25 -3 -28 -35 -28 -30 0 -35 3 -35 23 0 31 7 36 41 34 24 -2 29 -6 29 -29z"/>
<path d="M4660 4263 l0 -63 70 0 71 0 -3 61 -3 61 -68 2 -67 1 0 -62z m100 -4
c0 -28 -2 -30 -32 -27 -28 2 -34 8 -36 31 -3 25 -1 27 32 27 33 0 36 -2 36
-31z"/>
<path d="M4820 4263 l0 -63 70 0 70 0 0 59 0 59 -70 4 -70 3 0 -62z m100 -4
c0 -28 -2 -30 -32 -27 -28 2 -34 8 -36 31 -3 25 -1 27 32 27 33 0 36 -2 36
-31z"/>
<path d="M4500 4260 l0 -60 70 0 70 0 0 60 0 60 -70 0 -70 0 0 -60z m108 3
c-2 -23 -8 -29 -35 -31 -31 -3 -33 -1 -33 27 0 29 3 31 36 31 33 0 35 -2 32
-27z"/>
<path d="M4500 4115 l0 -65 70 0 70 0 0 65 0 65 -70 0 -70 0 0 -65z m108 3 c3
-26 1 -28 -31 -28 -29 0 -35 4 -39 25 -6 31 -1 37 37 33 24 -2 31 -8 33 -30z"/>
<path d="M4660 4115 l0 -65 70 0 70 0 0 65 0 65 -70 0 -70 0 0 -65z m100 5 c0
-28 -3 -30 -35 -30 -30 0 -35 3 -35 23 0 31 7 37 42 37 24 0 28 -4 28 -30z"/>
<path d="M4820 4115 l0 -65 70 0 70 0 0 65 0 65 -70 0 -70 0 0 -65z m100 5 c0
-28 -3 -30 -35 -30 -30 0 -35 3 -35 23 0 31 7 37 42 37 24 0 28 -4 28 -30z"/>
<path d="M4500 3975 l0 -65 70 0 70 0 0 65 0 65 -70 0 -70 0 0 -65z m108 -2
c-2 -23 -8 -29 -35 -31 -31 -3 -33 -1 -33 27 0 29 3 31 36 31 33 0 35 -2 32
-27z"/>
<path d="M4660 3975 l0 -65 70 0 70 0 0 65 0 65 -70 0 -70 0 0 -65z m100 -6
c0 -28 -2 -30 -32 -27 -28 2 -34 8 -36 31 -3 25 -1 27 32 27 33 0 36 -2 36
-31z"/>
<path d="M4820 3975 l0 -65 70 0 70 0 0 65 0 65 -70 0 -70 0 0 -65z m100 -6
c0 -28 -2 -30 -32 -27 -28 2 -34 8 -36 31 -3 25 -1 27 32 27 33 0 36 -2 36
-31z"/>
<path d="M4500 3830 l0 -60 70 0 70 0 0 60 0 60 -70 0 -70 0 0 -60z m108 -2
c3 -26 1 -28 -32 -28 -33 0 -36 2 -36 31 0 28 2 30 33 27 27 -2 33 -8 35 -30z"/>
<path d="M4660 3830 l0 -60 70 0 70 0 0 60 0 60 -70 0 -70 0 0 -60z m100 0 c0
-28 -3 -30 -35 -30 -30 0 -35 3 -35 23 0 31 7 37 42 37 24 0 28 -4 28 -30z"/>
<path d="M4820 3830 l0 -60 70 0 70 0 0 60 0 60 -70 0 -70 0 0 -60z m100 0 c0
-28 -3 -30 -35 -30 -30 0 -35 3 -35 23 0 31 7 37 42 37 24 0 28 -4 28 -30z"/>
<path d="M4820 3685 l0 -65 70 0 70 0 0 65 0 65 -70 0 -70 0 0 -65z m100 -7
c0 -27 -2 -29 -32 -26 -22 2 -34 9 -36 21 -6 33 4 44 37 39 27 -4 31 -8 31
-34z"/>
<path d="M4820 3543 l0 -63 70 0 70 0 0 60 c0 59 -1 60 -27 61 -16 0 -47 1
-70 3 l-43 2 0 -63z m100 -3 c0 -28 -3 -30 -35 -30 -32 0 -35 2 -35 30 0 28 3
30 35 30 32 0 35 -2 35 -30z"/>
<path d="M4820 3395 l0 -65 70 0 70 0 0 65 0 65 -70 0 -70 0 0 -65z m100 5 c0
-28 -3 -30 -35 -30 -30 0 -35 3 -35 23 0 31 7 37 42 37 24 0 28 -4 28 -30z"/>
<path d="M6780 4845 l0 -435 45 0 45 0 0 435 0 435 -45 0 -45 0 0 -435z m60 0
c0 -353 -2 -405 -15 -405 -13 0 -15 52 -15 405 0 353 2 405 15 405 13 0 15
-52 15 -405z"/>
<path d="M6900 4845 l0 -435 45 0 45 0 0 435 0 435 -45 0 -45 0 0 -435z m60 0
c0 -353 -2 -405 -15 -405 -13 0 -15 52 -15 405 0 353 2 405 15 405 13 0 15
-52 15 -405z"/>
<path d="M7020 4845 l0 -435 45 0 45 0 0 435 0 435 -45 0 -45 0 0 -435z m58 3
c-2 -310 -6 -402 -15 -406 -10 -3 -13 82 -13 402 0 356 2 406 15 406 13 0 15
-49 13 -402z"/>
<path d="M7140 4845 l0 -435 45 0 45 0 0 435 0 435 -45 0 -45 0 0 -435z m58 3
c-2 -310 -6 -402 -15 -406 -10 -3 -13 82 -13 402 0 356 2 406 15 406 13 0 15
-49 13 -402z"/>
<path d="M3680 5145 c0 -11 12 -15 45 -15 33 0 45 4 45 15 0 11 -12 15 -45 15
-33 0 -45 -4 -45 -15z"/>
<path d="M3830 5145 c0 -11 11 -15 40 -15 29 0 40 4 40 15 0 11 -11 15 -40 15
-29 0 -40 -4 -40 -15z"/>
<path d="M3970 5146 c0 -12 11 -16 46 -16 59 0 55 24 -4 28 -33 2 -42 0 -42
-12z"/>
<path d="M4110 5145 c0 -11 12 -15 45 -15 33 0 45 4 45 15 0 11 -12 15 -45 15
-33 0 -45 -4 -45 -15z"/>
<path d="M3680 5085 c0 -11 12 -15 45 -15 33 0 45 4 45 15 0 11 -12 15 -45 15
-33 0 -45 -4 -45 -15z"/>
<path d="M3830 5085 c0 -11 11 -15 40 -15 29 0 40 4 40 15 0 11 -11 15 -40 15
-29 0 -40 -4 -40 -15z"/>
<path d="M3970 5086 c0 -12 11 -16 46 -16 59 0 55 24 -4 28 -33 2 -42 0 -42
-12z"/>
<path d="M4110 5085 c0 -11 12 -15 45 -15 33 0 45 4 45 15 0 11 -12 15 -45 15
-33 0 -45 -4 -45 -15z"/>
<path d="M3685 5030 c-11 -19 6 -30 46 -30 32 0 39 3 39 20 0 17 -7 20 -39 20
-22 0 -43 -4 -46 -10z"/>
<path d="M3830 5020 c0 -17 7 -20 40 -20 33 0 40 3 40 20 0 17 -7 20 -40 20
-33 0 -40 -3 -40 -20z"/>
<path d="M3970 5020 c0 -19 5 -21 43 -18 29 2 42 8 42 18 0 10 -13 16 -42 18
-38 3 -43 1 -43 -18z"/>
<path d="M4110 5020 c0 -17 7 -20 45 -20 38 0 45 3 45 20 0 17 -7 20 -45 20
-38 0 -45 -3 -45 -20z"/>
<path d="M3684 4971 c-2 -2 -4 -10 -4 -18 0 -9 14 -13 45 -13 60 0 63 26 4 32
-22 2 -42 2 -45 -1z"/>
<path d="M3830 4958 c0 -14 9 -18 40 -18 31 0 40 4 40 18 0 13 -9 17 -40 17
-31 0 -40 -4 -40 -17z"/>
<path d="M3983 4973 c-7 -3 -13 -11 -13 -19 0 -10 12 -14 39 -14 35 0 61 14
49 26 -7 6 -61 11 -75 7z"/>
<path d="M4143 4973 c-53 -7 -43 -33 13 -33 37 0 45 3 42 17 -4 19 -11 21 -55
16z"/>
<path d="M3680 4895 c0 -11 12 -15 45 -15 33 0 45 4 45 15 0 11 -12 15 -45 15
-33 0 -45 -4 -45 -15z"/>
<path d="M3830 4895 c0 -11 11 -15 40 -15 29 0 40 4 40 15 0 11 -11 15 -40 15
-29 0 -40 -4 -40 -15z"/>
<path d="M3970 4894 c0 -12 9 -14 42 -12 59 4 63 28 4 28 -35 0 -46 -4 -46
-16z"/>
<path d="M4110 4895 c0 -11 12 -15 45 -15 33 0 45 4 45 15 0 11 -12 15 -45 15
-33 0 -45 -4 -45 -15z"/>
<path d="M3680 4835 c0 -11 12 -15 45 -15 33 0 45 4 45 15 0 11 -12 15 -45 15
-33 0 -45 -4 -45 -15z"/>
<path d="M3830 4835 c0 -11 11 -15 40 -15 29 0 40 4 40 15 0 11 -11 15 -40 15
-29 0 -40 -4 -40 -15z"/>
<path d="M3970 4835 c0 -11 12 -15 45 -15 33 0 45 4 45 15 0 11 -12 15 -45 15
-33 0 -45 -4 -45 -15z"/>
<path d="M4110 4835 c0 -11 12 -15 45 -15 33 0 45 4 45 15 0 11 -12 15 -45 15
-33 0 -45 -4 -45 -15z"/>
<path d="M3680 4775 c0 -11 12 -15 45 -15 33 0 45 4 45 15 0 11 -12 15 -45 15
-33 0 -45 -4 -45 -15z"/>
<path d="M3830 4775 c0 -11 11 -15 40 -15 29 0 40 4 40 15 0 11 -11 15 -40 15
-29 0 -40 -4 -40 -15z"/>
<path d="M3970 4775 c0 -11 12 -15 45 -15 33 0 45 4 45 15 0 11 -12 15 -45 15
-33 0 -45 -4 -45 -15z"/>
<path d="M4110 4775 c0 -11 12 -15 45 -15 33 0 45 4 45 15 0 11 -12 15 -45 15
-33 0 -45 -4 -45 -15z"/>
<path d="M3682 4713 c5 -26 88 -26 88 -1 0 15 -8 18 -46 18 -37 0 -45 -3 -42
-17z"/>
<path d="M3830 4712 c0 -14 8 -18 40 -17 31 0 40 4 40 18 0 13 -9 17 -40 17
-32 0 -40 -4 -40 -18z"/>
<path d="M3970 4715 c0 -8 9 -15 20 -16 11 -1 30 -2 42 -2 14 -1 24 5 26 16 3
14 -4 17 -42 17 -34 0 -46 -4 -46 -15z"/>
<path d="M4112 4713 c5 -24 81 -25 86 0 3 14 -4 17 -43 17 -38 0 -46 -3 -43
-17z"/>
<path d="M3682 4653 c2 -13 15 -19 46 -21 37 -3 42 -1 42 17 0 18 -6 21 -46
21 -38 0 -45 -3 -42 -17z"/>
<path d="M3830 4650 c0 -17 7 -20 40 -20 33 0 40 3 40 20 0 17 -7 20 -40 20
-33 0 -40 -3 -40 -20z"/>
<path d="M3970 4651 c0 -18 6 -20 43 -18 30 1 42 6 42 17 0 10 -13 16 -42 18
-38 3 -43 1 -43 -17z"/>
<path d="M4112 4653 c2 -14 13 -18 43 -18 30 0 41 4 43 18 3 14 -4 17 -43 17
-39 0 -46 -3 -43 -17z"/>
<path d="M3830 4588 c0 -14 8 -18 40 -18 28 0 40 4 40 14 0 9 -14 15 -40 18
-33 3 -40 0 -40 -14z"/>
<path d="M4008 4602 c-25 -2 -38 -8 -38 -18 0 -17 75 -20 86 -3 10 17 -8 24
-48 21z"/>
<path d="M3682 4588 c3 -7 23 -14 46 -16 33 -2 42 0 42 12 0 12 -11 16 -46 16
-32 0 -44 -4 -42 -12z"/>
<path d="M4110 4585 c0 -11 12 -15 45 -15 33 0 45 4 45 15 0 11 -12 15 -45 15
-33 0 -45 -4 -45 -15z"/>
<path d="M3680 4525 c0 -11 12 -15 45 -15 33 0 45 4 45 15 0 11 -12 15 -45 15
-33 0 -45 -4 -45 -15z"/>
<path d="M3830 4525 c0 -11 11 -15 40 -15 29 0 40 4 40 15 0 11 -11 15 -40 15
-29 0 -40 -4 -40 -15z"/>
<path d="M3970 4525 c0 -11 12 -15 45 -15 33 0 45 4 45 15 0 11 -12 15 -45 15
-33 0 -45 -4 -45 -15z"/>
<path d="M4110 4525 c0 -11 12 -15 45 -15 33 0 45 4 45 15 0 11 -12 15 -45 15
-33 0 -45 -4 -45 -15z"/>
<path d="M3680 4465 c0 -11 12 -15 45 -15 33 0 45 4 45 15 0 11 -12 15 -45 15
-33 0 -45 -4 -45 -15z"/>
<path d="M3830 4465 c0 -11 11 -15 40 -15 29 0 40 4 40 15 0 11 -11 15 -40 15
-29 0 -40 -4 -40 -15z"/>
<path d="M3970 4465 c0 -11 12 -15 45 -15 33 0 45 4 45 15 0 11 -12 15 -45 15
-33 0 -45 -4 -45 -15z"/>
<path d="M4110 4465 c0 -11 12 -15 45 -15 33 0 45 4 45 15 0 11 -12 15 -45 15
-33 0 -45 -4 -45 -15z"/>
<path d="M3680 4405 c0 -11 12 -15 45 -15 33 0 45 4 45 15 0 11 -12 15 -45 15
-33 0 -45 -4 -45 -15z"/>
<path d="M3830 4405 c0 -11 11 -15 40 -15 29 0 40 4 40 15 0 11 -11 15 -40 15
-29 0 -40 -4 -40 -15z"/>
<path d="M3970 4405 c0 -11 12 -15 45 -15 33 0 45 4 45 15 0 11 -12 15 -45 15
-33 0 -45 -4 -45 -15z"/>
<path d="M4110 4405 c0 -11 12 -15 45 -15 33 0 45 4 45 15 0 11 -12 15 -45 15
-33 0 -45 -4 -45 -15z"/>
<path d="M3680 4345 c0 -11 12 -15 45 -15 33 0 45 4 45 15 0 11 -12 15 -45 15
-33 0 -45 -4 -45 -15z"/>
<path d="M3830 4345 c0 -11 11 -15 40 -15 29 0 40 4 40 15 0 11 -11 15 -40 15
-29 0 -40 -4 -40 -15z"/>
<path d="M3970 4346 c0 -12 11 -16 46 -16 59 0 55 24 -4 28 -33 2 -42 0 -42
-12z"/>
<path d="M4110 4345 c0 -11 12 -15 45 -15 33 0 45 4 45 15 0 11 -12 15 -45 15
-33 0 -45 -4 -45 -15z"/>
<path d="M3682 4283 c2 -10 9 -18 16 -17 6 1 26 2 42 3 19 0 30 6 30 16 0 11
-12 15 -46 15 -38 0 -45 -3 -42 -17z"/>
<path d="M3830 4285 c0 -8 6 -15 13 -16 6 0 24 -2 40 -3 20 -1 27 3 27 16 0
14 -8 18 -40 18 -29 0 -40 -4 -40 -15z"/>
<path d="M3970 4286 c0 -18 78 -27 84 -10 7 18 -4 24 -46 24 -26 0 -38 -4 -38
-14z"/>
<path d="M4112 4283 c2 -12 14 -16 43 -16 29 0 41 4 43 16 3 14 -5 17 -43 17
-38 0 -46 -3 -43 -17z"/>
<path d="M3684 4228 c-11 -17 9 -28 47 -28 30 0 39 4 39 18 0 13 -9 17 -41 18
-22 0 -42 -4 -45 -8z"/>
<path d="M3830 4221 c0 -18 6 -21 40 -21 29 0 40 4 40 15 0 9 -9 15 -24 15
-13 0 -31 3 -40 6 -12 4 -16 0 -16 -15z"/>
<path d="M3998 4233 c-16 -3 -28 -11 -28 -19 0 -12 10 -14 43 -12 29 2 42 8
42 18 0 16 -15 20 -57 13z"/>
<path d="M4114 4231 c-2 -2 -4 -10 -4 -18 0 -9 14 -13 46 -13 37 0 45 3 42 16
-2 12 -14 17 -41 18 -21 1 -41 -1 -43 -3z"/>
<path d="M3680 4155 c0 -11 12 -15 45 -15 33 0 45 4 45 15 0 11 -12 15 -45 15
-33 0 -45 -4 -45 -15z"/>
<path d="M3830 4155 c0 -11 11 -15 40 -15 29 0 40 4 40 15 0 11 -11 15 -40 15
-29 0 -40 -4 -40 -15z"/>
<path d="M3970 4155 c0 -11 12 -15 45 -15 33 0 45 4 45 15 0 11 -12 15 -45 15
-33 0 -45 -4 -45 -15z"/>
<path d="M4110 4155 c0 -11 12 -15 45 -15 33 0 45 4 45 15 0 11 -12 15 -45 15
-33 0 -45 -4 -45 -15z"/>
<path d="M3680 4095 c0 -11 12 -15 45 -15 33 0 45 4 45 15 0 11 -12 15 -45 15
-33 0 -45 -4 -45 -15z"/>
<path d="M3830 4095 c0 -11 11 -15 40 -15 29 0 40 4 40 15 0 11 -11 15 -40 15
-29 0 -40 -4 -40 -15z"/>
<path d="M3970 4095 c0 -11 12 -15 45 -15 33 0 45 4 45 15 0 11 -12 15 -45 15
-33 0 -45 -4 -45 -15z"/>
<path d="M4110 4095 c0 -11 12 -15 45 -15 33 0 45 4 45 15 0 11 -12 15 -45 15
-33 0 -45 -4 -45 -15z"/>
<path d="M3680 4035 c0 -11 12 -15 45 -15 33 0 45 4 45 15 0 11 -12 15 -45 15
-33 0 -45 -4 -45 -15z"/>
<path d="M3830 4035 c0 -11 11 -15 40 -15 29 0 40 4 40 15 0 11 -11 15 -40 15
-29 0 -40 -4 -40 -15z"/>
<path d="M3970 4035 c0 -11 12 -15 45 -15 33 0 45 4 45 15 0 11 -12 15 -45 15
-33 0 -45 -4 -45 -15z"/>
<path d="M4110 4035 c0 -11 12 -15 45 -15 33 0 45 4 45 15 0 11 -12 15 -45 15
-33 0 -45 -4 -45 -15z"/>
<path d="M3680 3975 c0 -11 12 -15 45 -15 33 0 45 4 45 15 0 11 -12 15 -45 15
-33 0 -45 -4 -45 -15z"/>
<path d="M3830 3975 c0 -11 11 -15 40 -15 29 0 40 4 40 15 0 11 -11 15 -40 15
-29 0 -40 -4 -40 -15z"/>
<path d="M3970 3976 c0 -12 11 -16 46 -16 59 0 55 24 -4 28 -33 2 -42 0 -42
-12z"/>
<path d="M4110 3975 c0 -11 12 -15 45 -15 33 0 45 4 45 15 0 11 -12 15 -45 15
-33 0 -45 -4 -45 -15z"/>
<path d="M3684 3919 c-11 -18 11 -31 47 -27 23 2 35 9 37 21 3 14 -4 17 -37
17 -22 0 -43 -5 -47 -11z"/>
<path d="M3830 3910 c0 -17 7 -20 40 -20 33 0 40 3 40 20 0 17 -7 20 -40 20
-33 0 -40 -3 -40 -20z"/>
<path d="M3970 3910 c0 -19 5 -21 43 -18 29 2 42 8 42 18 0 10 -13 16 -42 18
-38 3 -43 1 -43 -18z"/>
<path d="M4114 3919 c-11 -18 11 -31 47 -27 23 2 35 9 37 21 3 14 -4 17 -37
17 -22 0 -43 -5 -47 -11z"/>
<path d="M3680 3845 c0 -11 12 -15 45 -15 33 0 45 4 45 15 0 11 -12 15 -45 15
-33 0 -45 -4 -45 -15z"/>
<path d="M3830 3845 c0 -11 11 -15 40 -15 29 0 40 4 40 15 0 11 -11 15 -40 15
-29 0 -40 -4 -40 -15z"/>
<path d="M3970 3844 c0 -12 9 -14 42 -12 59 4 63 28 4 28 -35 0 -46 -4 -46
-16z"/>
<path d="M4110 3845 c0 -11 12 -15 45 -15 33 0 45 4 45 15 0 11 -12 15 -45 15
-33 0 -45 -4 -45 -15z"/>
<path d="M3680 3785 c0 -11 12 -15 45 -15 33 0 45 4 45 15 0 11 -12 15 -45 15
-33 0 -45 -4 -45 -15z"/>
<path d="M3830 3785 c0 -11 11 -15 40 -15 29 0 40 4 40 15 0 11 -11 15 -40 15
-29 0 -40 -4 -40 -15z"/>
<path d="M3970 3785 c0 -11 12 -15 45 -15 33 0 45 4 45 15 0 11 -12 15 -45 15
-33 0 -45 -4 -45 -15z"/>
<path d="M4110 3785 c0 -11 12 -15 45 -15 33 0 45 4 45 15 0 11 -12 15 -45 15
-33 0 -45 -4 -45 -15z"/>
<path d="M3680 3725 c0 -11 12 -15 45 -15 33 0 45 4 45 15 0 11 -12 15 -45 15
-33 0 -45 -4 -45 -15z"/>
<path d="M3830 3725 c0 -11 11 -15 40 -15 29 0 40 4 40 15 0 11 -11 15 -40 15
-29 0 -40 -4 -40 -15z"/>
<path d="M3970 3725 c0 -11 12 -15 45 -15 33 0 45 4 45 15 0 11 -12 15 -45 15
-33 0 -45 -4 -45 -15z"/>
<path d="M4110 3725 c0 -11 12 -15 45 -15 33 0 45 4 45 15 0 11 -12 15 -45 15
-33 0 -45 -4 -45 -15z"/>
<path d="M3680 3665 c0 -11 12 -15 45 -15 33 0 45 4 45 15 0 11 -12 15 -45 15
-33 0 -45 -4 -45 -15z"/>
<path d="M3830 3665 c0 -11 11 -15 40 -15 29 0 40 4 40 15 0 11 -11 15 -40 15
-29 0 -40 -4 -40 -15z"/>
<path d="M3970 3666 c0 -12 11 -16 46 -16 59 0 55 24 -4 28 -33 2 -42 0 -42
-12z"/>
<path d="M4110 3665 c0 -11 12 -15 45 -15 33 0 45 4 45 15 0 11 -12 15 -45 15
-33 0 -45 -4 -45 -15z"/>
<path d="M3680 3605 c0 -11 12 -15 45 -15 33 0 45 4 45 15 0 11 -12 15 -45 15
-33 0 -45 -4 -45 -15z"/>
<path d="M3830 3605 c0 -11 11 -15 40 -15 29 0 40 4 40 15 0 11 -11 15 -40 15
-29 0 -40 -4 -40 -15z"/>
<path d="M3970 3606 c0 -12 11 -16 46 -16 59 0 55 24 -4 28 -33 2 -42 0 -42
-12z"/>
<path d="M4110 3605 c0 -11 12 -15 45 -15 33 0 45 4 45 15 0 11 -12 15 -45 15
-33 0 -45 -4 -45 -15z"/>
<path d="M3685 3550 c-11 -19 6 -30 46 -30 32 0 39 3 39 20 0 17 -7 20 -39 20
-22 0 -43 -4 -46 -10z"/>
<path d="M3830 3542 c0 -15 8 -19 40 -19 32 0 40 4 40 19 0 14 -8 18 -40 18
-32 0 -40 -4 -40 -18z"/>
<path d="M3970 3542 c0 -15 7 -18 40 -17 22 1 43 4 46 8 14 13 -10 27 -47 27
-31 0 -39 -4 -39 -18z"/>
<path d="M4112 3543 c5 -25 81 -25 86 0 3 14 -4 17 -43 17 -39 0 -46 -3 -43
-17z"/>
<path d="M3853 3492 c-41 -6 -27 -32 17 -32 27 0 40 4 40 14 0 16 -24 23 -57
18z"/>
<path d="M3993 3492 c-13 -2 -23 -10 -23 -18 0 -12 10 -14 42 -12 23 2 43 8
45 14 4 13 -30 21 -64 16z"/>
<path d="M3680 3475 c0 -11 12 -15 45 -15 33 0 45 4 45 15 0 11 -12 15 -45 15
-33 0 -45 -4 -45 -15z"/>
<path d="M4110 3475 c0 -11 12 -15 45 -15 33 0 45 4 45 15 0 11 -12 15 -45 15
-33 0 -45 -4 -45 -15z"/>
<path d="M3680 3415 c0 -11 12 -15 45 -15 33 0 45 4 45 15 0 11 -12 15 -45 15
-33 0 -45 -4 -45 -15z"/>
<path d="M3830 3415 c0 -11 11 -15 40 -15 29 0 40 4 40 15 0 11 -11 15 -40 15
-29 0 -40 -4 -40 -15z"/>
<path d="M3970 3415 c0 -11 12 -15 45 -15 33 0 45 4 45 15 0 11 -12 15 -45 15
-33 0 -45 -4 -45 -15z"/>
<path d="M4110 3415 c0 -11 12 -15 45 -15 33 0 45 4 45 15 0 11 -12 15 -45 15
-33 0 -45 -4 -45 -15z"/>
<path d="M3680 3355 c0 -11 12 -15 45 -15 33 0 45 4 45 15 0 11 -12 15 -45 15
-33 0 -45 -4 -45 -15z"/>
<path d="M3830 3355 c0 -11 11 -15 40 -15 29 0 40 4 40 15 0 11 -11 15 -40 15
-29 0 -40 -4 -40 -15z"/>
<path d="M3970 3355 c0 -11 12 -15 45 -15 33 0 45 4 45 15 0 11 -12 15 -45 15
-33 0 -45 -4 -45 -15z"/>
<path d="M4110 3355 c0 -11 12 -15 45 -15 33 0 45 4 45 15 0 11 -12 15 -45 15
-33 0 -45 -4 -45 -15z"/>
<path d="M6350 4160 l0 -150 55 0 55 0 0 150 0 150 -55 0 -55 0 0 -150z m80
90 c0 -25 -4 -30 -25 -30 -21 0 -25 5 -25 30 0 25 4 30 25 30 21 0 25 -5 25
-30z m0 -85 c0 -20 -5 -25 -25 -25 -20 0 -25 5 -25 25 0 20 5 25 25 25 20 0
25 -5 25 -25z m0 -90 c0 -20 -5 -25 -25 -25 -20 0 -25 5 -25 25 0 20 5 25 25
25 20 0 25 -5 25 -25z"/>
<path d="M6530 4160 l0 -150 60 0 61 0 -3 148 -3 147 -57 3 -58 3 0 -151z m84
112 c12 -20 -7 -52 -30 -52 -20 0 -24 5 -24 30 0 25 4 30 24 30 14 0 27 -4 30
-8z m2 -109 c3 -20 -1 -23 -26 -23 -26 0 -30 4 -30 26 0 22 4 25 27 22 18 -2
27 -10 29 -25z m-4 -88 c-3 -18 -11 -25 -28 -25 -19 0 -24 5 -24 25 0 21 5 25
29 25 25 0 28 -3 23 -25z"/>
<path d="M6350 3820 l0 -150 55 0 55 0 0 150 0 150 -55 0 -55 0 0 -150z m80
84 c0 -19 -5 -24 -25 -24 -20 0 -25 5 -25 24 0 15 7 26 18 29 25 5 32 -1 32
-29z m0 -84 c0 -25 -4 -30 -25 -30 -21 0 -25 5 -25 30 0 25 4 30 25 30 21 0
25 -5 25 -30z m0 -90 c0 -25 -4 -30 -25 -30 -21 0 -25 5 -25 30 0 25 4 30 25
30 21 0 25 -5 25 -30z"/>
<path d="M6530 3820 l0 -150 60 0 61 0 -3 148 -3 147 -57 3 -58 2 0 -150z m75
112 c6 -4 10 -16 10 -27 0 -14 -8 -21 -27 -23 -24 -3 -28 0 -28 22 0 21 10 32
30 35 3 0 10 -3 15 -7z m10 -112 c0 -20 -6 -26 -28 -28 -23 -3 -27 0 -27 21 0
30 9 39 34 35 14 -2 21 -11 21 -28z m0 -81 c8 -25 -6 -42 -31 -37 -12 2 -20
13 -22 31 -3 23 0 27 22 27 16 0 27 -7 31 -21z"/>
<path d="M6350 3475 l0 -145 55 0 55 0 0 145 0 145 -55 0 -55 0 0 -145z m80
90 c0 -20 -5 -25 -25 -25 -20 0 -25 5 -25 25 0 20 5 25 25 25 20 0 25 -5 25
-25z m0 -90 c0 -20 -5 -25 -25 -25 -20 0 -25 5 -25 25 0 20 5 25 25 25 20 0
25 -5 25 -25z m0 -85 c0 -25 -4 -30 -25 -30 -21 0 -25 5 -25 30 0 25 4 30 25
30 21 0 25 -5 25 -30z"/>
<path d="M6530 3475 l0 -145 60 0 60 0 0 145 0 145 -60 0 -60 0 0 -145z m86
90 c-1 -20 -6 -25 -28 -25 -23 0 -28 4 -28 25 0 21 5 25 29 25 25 0 29 -4 27
-25z m0 -87 c-2 -16 -11 -24 -29 -26 -23 -3 -27 0 -27 22 0 22 4 26 30 26 25
0 29 -3 26 -22z m-2 -80 c-1 -10 -2 -22 -3 -28 0 -5 -12 -10 -26 -10 -21 0
-25 5 -25 31 0 27 3 30 28 27 18 -2 27 -8 26 -20z"/>
<path d="M7360 4160 l0 -150 60 0 60 0 0 150 0 150 -60 0 -60 0 0 -150z m85
90 c0 -20 -6 -26 -27 -28 -25 -3 -28 0 -28 28 0 28 3 31 28 28 21 -2 27 -8 27
-28z m3 -87 c3 -20 -1 -23 -27 -23 -27 0 -31 4 -31 26 0 22 4 25 28 22 19 -2
28 -9 30 -25z m2 -88 c0 -21 -5 -25 -30 -25 -25 0 -30 4 -30 25 0 21 5 25 30
25 25 0 30 -4 30 -25z"/>
<path d="M7542 4163 l3 -148 58 -3 57 -3 0 151 0 150 -60 0 -61 0 3 -147z m88
87 c0 -25 -4 -30 -23 -30 -31 0 -35 5 -29 35 3 18 11 25 28 25 20 0 24 -5 24
-30z m0 -85 c0 -20 -5 -25 -25 -25 -20 0 -25 5 -25 25 0 20 5 25 25 25 20 0
25 -5 25 -25z m0 -90 c0 -20 -5 -25 -24 -25 -17 0 -25 7 -28 25 -5 22 -2 25
23 25 24 0 29 -4 29 -25z"/>
<path d="M7360 3820 l0 -150 60 0 60 0 0 150 0 150 -60 0 -60 0 0 -150z m88
84 c-2 -12 -13 -20 -31 -22 -23 -3 -27 0 -27 22 0 18 6 26 23 28 28 5 40 -5
35 -28z m0 -86 c3 -25 0 -28 -27 -28 -28 0 -31 3 -31 31 0 27 3 30 28 27 21
-2 28 -9 30 -30z m-3 -88 c0 -20 -5 -25 -25 -25 -20 0 -26 6 -28 28 -3 26 -1
28 25 25 22 -2 28 -8 28 -28z"/>
<path d="M7547 3963 c-9 -8 -9 -84 -1 -201 l7 -92 53 0 54 0 0 150 0 150 -53
0 c-30 0 -57 -3 -60 -7z m83 -59 c0 -20 -5 -24 -29 -24 -25 0 -28 3 -24 24 5
23 28 38 46 29 4 -2 7 -15 7 -29z m0 -84 c0 -25 -4 -30 -25 -30 -14 0 -28 7
-31 15 -10 25 4 45 31 45 21 0 25 -5 25 -30z m0 -90 c0 -25 -4 -30 -24 -30
-17 0 -25 7 -28 25 -6 30 -2 35 29 35 19 0 23 -5 23 -30z"/>
<path d="M6810 4110 l0 -140 70 0 70 0 0 140 0 140 -70 0 -70 0 0 -140z m110
85 c0 -22 -4 -25 -40 -25 -36 0 -40 3 -40 25 0 23 4 25 40 25 36 0 40 -2 40
-25z m0 -80 c0 -22 -4 -25 -40 -25 -36 0 -40 3 -40 25 0 23 4 25 40 25 36 0
40 -2 40 -25z m0 -80 c0 -22 -4 -25 -40 -25 -36 0 -40 3 -40 25 0 23 4 25 40
25 36 0 40 -2 40 -25z"/>
<path d="M7052 4113 l3 -138 73 -3 72 -3 0 141 0 140 -75 0 -76 0 3 -137z
m118 82 c0 -22 -4 -25 -40 -25 -36 0 -40 3 -40 25 0 23 4 25 40 25 36 0 40 -2
40 -25z m-2 -82 c3 -21 -1 -23 -37 -23 -37 0 -41 2 -41 26 0 23 3 25 38 22 30
-2 38 -7 40 -25z m0 -80 c3 -21 -1 -23 -36 -23 -31 0 -41 4 -45 19 -7 27 1 32
43 29 28 -2 36 -8 38 -25z"/>
<path d="M6810 3795 l0 -135 70 0 70 0 0 135 0 135 -70 0 -70 0 0 -135z m110
80 c0 -22 -4 -25 -40 -25 -36 0 -40 3 -40 25 0 23 4 25 40 25 36 0 40 -2 40
-25z m0 -80 c0 -22 -4 -25 -40 -25 -36 0 -40 3 -40 25 0 23 4 25 40 25 36 0
40 -2 40 -25z m0 -80 c0 -22 -4 -25 -40 -25 -36 0 -40 3 -40 25 0 23 4 25 40
25 36 0 40 -2 40 -25z"/>
<path d="M7051 3795 l0 -135 74 0 75 0 0 135 0 135 -74 0 -75 0 0 -135z m119
80 c0 -23 -4 -25 -45 -25 -45 0 -48 5 -36 48 1 1 19 2 41 2 36 0 40 -2 40 -25z
m0 -80 c0 -22 -4 -25 -40 -25 -36 0 -40 3 -40 25 0 23 4 25 40 25 36 0 40 -2
40 -25z m0 -80 c0 -22 -4 -25 -40 -25 -22 0 -40 4 -40 9 0 5 -3 16 -6 25 -5
13 2 16 40 16 42 0 46 -2 46 -25z"/>
<path d="M6810 3475 l0 -135 73 0 72 0 -3 135 -3 135 -70 0 -69 0 0 -135z
m110 80 c0 -22 -4 -25 -40 -25 -36 0 -40 3 -40 25 0 23 4 25 40 25 36 0 40 -2
40 -25z m0 -80 c0 -22 -4 -25 -40 -25 -36 0 -40 3 -40 25 0 23 4 25 40 25 36
0 40 -2 40 -25z m0 -80 c0 -22 -4 -25 -40 -25 -36 0 -40 3 -40 25 0 23 4 25
40 25 36 0 40 -2 40 -25z"/>
<path d="M12982 7230 c-18 -11 -37 -30 -43 -42 -9 -20 -17 -23 -69 -23 -50 0
-63 -4 -87 -27 -28 -27 -34 -28 -126 -28 -58 0 -97 -4 -97 -10 0 -6 43 -10
108 -10 102 0 110 1 132 24 30 33 71 41 109 22 38 -20 41 -20 41 4 0 11 13 34
29 52 39 44 93 44 133 -1 16 -17 28 -41 28 -54 0 -20 5 -22 46 -22 38 0 50 -5
70 -28 15 -18 24 -41 24 -63 l0 -34 105 0 c87 0 105 3 105 15 0 12 -17 15 -89
15 -84 0 -90 1 -96 23 -18 63 -56 97 -109 97 -19 0 -29 9 -42 36 -33 69 -108
93 -172 54z"/>
<path d="M1670 7171 c-106 -33 -160 -110 -160 -231 0 -137 67 -216 200 -235
58 -8 134 9 183 41 116 76 115 314 -2 391 -59 40 -154 54 -221 34z m154 -104
c75 -52 75 -197 0 -256 -24 -19 -38 -22 -86 -19 -87 6 -128 56 -128 153 0 124
116 190 214 122z"/>
<path d="M3364 7164 c-52 -18 -109 -75 -126 -123 -6 -20 -12 -67 -12 -106 -1
-81 22 -133 78 -183 82 -72 257 -62 333 20 79 85 72 270 -13 350 -59 55 -172
73 -260 42z m156 -84 c44 -23 64 -60 68 -127 5 -77 -12 -119 -58 -146 -35 -21
-102 -22 -140 -2 -71 37 -89 174 -32 244 33 42 112 56 162 31z"/>
<path d="M9460 7150 c0 -27 -3 -30 -30 -30 -16 0 -30 -4 -30 -10 0 -10 7 -12
40 -14 9 -1 16 -13 18 -28 2 -16 7 -28 12 -28 5 0 10 12 12 28 2 21 9 28 31
30 33 4 26 22 -9 22 -20 0 -24 5 -24 30 0 17 -4 30 -10 30 -5 0 -10 -13 -10
-30z"/>
<path d="M2620 7136 c0 -31 3 -34 34 -40 l34 -7 4 -137 c3 -107 7 -144 21
-170 48 -88 193 -106 278 -35 l32 27 -5 -85 c-5 -98 -23 -138 -75 -163 -61
-29 -165 -15 -214 29 -14 14 -18 11 -35 -21 l-19 -36 29 -23 c58 -46 170 -62
260 -36 61 18 120 74 135 128 7 23 11 152 11 321 l0 282 -80 0 -80 0 0 -34 c0
-30 4 -35 30 -41 l30 -7 0 -116 c0 -125 -7 -146 -57 -171 -27 -14 -88 -14
-114 -1 -40 22 -49 61 -49 220 l0 150 -85 0 -85 0 0 -34z"/>
<path d="M7350 7095 c0 -21 -5 -25 -31 -25 -38 0 -35 -24 4 -28 21 -3 27 -9
27 -28 0 -13 5 -24 10 -24 6 0 10 11 10 24 0 19 6 25 25 28 14 2 26 8 26 13 0
6 -12 11 -26 13 -19 3 -25 9 -25 28 0 13 -4 24 -10 24 -5 0 -10 -11 -10 -25z"/>
<path d="M11540 6991 c0 -28 -3 -31 -30 -31 -16 0 -30 -4 -30 -10 0 -5 14 -10
30 -10 27 0 30 -3 30 -31 0 -38 24 -35 28 4 3 21 9 27 28 27 13 0 24 5 24 10
0 6 -11 10 -24 10 -19 0 -25 6 -28 27 -4 39 -28 42 -28 4z"/>
<path d="M7014 6396 c-19 -19 -34 -41 -34 -50 0 -11 -9 -16 -29 -16 -44 0 -94
-39 -111 -88 l-14 -42 -88 0 c-52 0 -88 -4 -88 -10 0 -5 6 -10 13 -10 28 -1
163 -2 180 -1 12 1 17 9 17 32 0 47 47 89 99 89 30 0 41 4 41 15 0 31 29 72
59 85 55 23 116 -11 128 -70 6 -34 10 -35 37 -15 33 25 81 19 115 -16 27 -27
36 -30 82 -27 74 4 79 28 6 28 -39 0 -59 5 -68 17 -24 28 -72 43 -112 33 -31
-6 -37 -5 -42 11 -12 37 -64 69 -112 69 -38 0 -50 -5 -79 -34z"/>
<path d="M13096 6213 c-3 -3 -6 -17 -6 -29 0 -17 -7 -23 -25 -26 -35 -4 -36
-22 -2 -26 21 -3 27 -8 27 -28 0 -31 24 -27 28 4 2 16 10 22 28 22 15 0 24 6
24 15 0 9 -9 15 -25 15 -20 0 -25 5 -25 24 0 26 -12 40 -24 29z"/>
<path d="M2770 6096 c0 -19 -6 -25 -27 -28 -34 -4 -33 -22 2 -26 19 -3 25 -9
25 -27 0 -34 18 -41 22 -8 2 22 9 29 31 31 35 4 30 26 -6 30 -21 3 -27 9 -27
28 0 13 -4 24 -10 24 -5 0 -10 -11 -10 -24z"/>
<path d="M859 6098 c-1 -7 -1 -18 0 -25 1 -6 -11 -13 -25 -15 -36 -4 -44 -28
-10 -28 14 0 27 -6 28 -12 0 -7 2 -19 2 -25 2 -25 21 -17 24 10 3 21 8 27 28
27 31 0 27 24 -4 28 -16 2 -22 10 -22 28 0 24 -19 35 -21 12z"/>
<path d="M10628 6074 c-5 -4 -8 -18 -8 -31 0 -19 -5 -23 -31 -23 -38 0 -35
-24 4 -28 21 -3 27 -9 27 -28 0 -13 5 -24 10 -24 6 0 10 11 10 24 0 19 6 25
27 28 38 4 42 28 4 28 -26 0 -30 4 -33 31 -2 17 -6 27 -10 23z"/>
<path d="M12060 5805 c0 -20 -5 -25 -25 -25 -16 0 -25 -6 -25 -15 0 -9 9 -15
24 -15 19 0 25 -6 28 -27 4 -34 22 -33 26 2 3 19 9 25 28 25 31 0 27 24 -4 28
-16 2 -22 10 -22 28 0 15 -6 24 -15 24 -9 0 -15 -9 -15 -25z"/>
<path d="M4328 5793 c-2 -15 -9 -29 -15 -29 -7 -1 -20 -2 -28 -3 -28 -2 -15
-21 14 -21 25 0 30 -4 33 -27 4 -34 22 -33 26 2 3 19 9 25 28 25 13 0 24 5 24
10 0 6 -11 10 -24 10 -19 0 -25 6 -28 27 -4 36 -26 41 -30 6z"/>
<path d="M14900 5445 c0 -20 -5 -25 -25 -25 -16 0 -25 -6 -25 -15 0 -9 9 -15
25 -15 20 0 25 -5 25 -25 0 -16 6 -25 15 -25 9 0 15 9 15 24 0 19 6 25 25 28
14 2 26 8 26 13 0 6 -12 11 -26 13 -19 3 -25 9 -25 28 0 15 -6 24 -15 24 -9 0
-15 -9 -15 -25z"/>
<path d="M1368 5338 c0 -7 -1 -20 -2 -28 -1 -9 -13 -16 -28 -18 -16 -2 -28 -7
-28 -12 0 -5 12 -10 28 -12 21 -2 27 -8 27 -27 0 -13 6 -26 13 -28 7 -3 12 5
12 21 0 16 6 26 15 27 8 1 20 2 27 3 6 0 13 7 16 14 2 8 -7 12 -27 12 -28 0
-31 3 -31 30 0 29 -18 44 -22 18z"/>
</g>
</svg>
